<svg width="1182" height="1706" viewBox="0 0 1182 1706" fill="none" xmlns="http://www.w3.org/2000/svg">
<style>
#Vector_4, #Vector_6 {
    fill: chartreuse;
}
</style>
<g id="Janak_nbg">
<path id="Vector" d="M481.5 0.800031C481 1.40003 477.1 2.10003 473 2.30003C462.1 3.00003 459.3 3.50003 457.5 5.00003C456.3 6.00003 455.6 6.00003 454.8 5.20003C453.4 3.80003 446.4 3.60003 445.6 4.90003C445.3 5.40003 443.3 6.10002 441.3 6.40002C439.2 6.80002 434.1 8.70002 430 10.6C425.9 12.6 421.4 14.7 420 15.2C418.6 15.7 416.2 16.8 414.7 17.6C413.1 18.4 411.3 19 410.7 19C409.2 19 401 27.1 401 28.5C401 29.1 400 30.7 398.8 32C392.4 38.9 388.5 48.2 387.3 59.3C386.8 64 386.8 64.1 389.4 63.4C392 62.8 392 62.9 392 68.4C392 74.7 392.8 75.2 397.2 71.5C398.8 70.2 401.9 68.6 404.1 68C406.3 67.4 409.8 66 411.8 64.9C414.3 63.4 416.7 62.9 420.1 63.2C424 63.4 425 63.2 425.4 61.7C425.6 60.8 426.5 60 427.4 60C429.4 60 429.4 58.9 427.5 54.3C425.5 49.5 425.5 44 427.6 44C431.6 44 433 45.9 433 51.5C433 54.4 433.4 57.1 433.9 57.4C434.3 57.7 435 59.3 435.3 61C436.1 64.5 438 65 438 61.7C438 60.4 438.5 58.9 439.2 58.2C440.1 57.3 440.1 56.4 439.2 54.5C438.5 53.1 438 50.8 438 49.4C438 47.3 438.4 47 440 47.5C441.4 47.9 442.2 47.6 442.7 46.3C443.1 45.3 444.4 43.7 445.7 42.7C447 41.7 448 40 448 39.1C448 38.1 449.8 35.4 451.9 33.1C455.4 29.4 456.1 29.1 457.8 30.1C461.1 32.2 462.2 34.7 460.8 37.2C460.1 38.4 458.9 40.1 458.2 40.8C457.5 41.6 457 43.2 457.2 44.4C457.4 46.1 458.1 46.5 460.7 46.4C463.1 46.2 465.6 44.8 469.8 41.1C475.6 36.2 484.4 31 487.2 31C488 31 489.7 32.1 491 33.5C492.3 34.9 493.9 36 494.5 36C495.2 36 496 37.3 496.3 38.9L496.9 41.8L502.9 39.8L508.9 37.8L511.7 39.8C513.5 41.1 515.5 41.6 517.1 41.3C519.2 40.9 520.3 41.6 522.8 44.6C525.6 47.9 526.2 48.2 528.2 47.3C532.3 45.4 545.3 43.5 554.1 43.6C561.1 43.6 563.5 44.1 566.4 45.8C568.5 47 570.6 48 571.1 48C571.6 48 573.4 49 575 50.2C577.3 51.9 578.3 52.1 579.2 51.2C582.3 48.1 593.4 51.2 595.6 55.7C597.4 59.5 607.8 68 610.6 68C612 68 612.8 68.4 612.5 69C612.2 69.5 610.8 70 609.4 70C608.1 70 607 70.4 607 71C607 71.5 607.9 72 608.9 72C610 72 611.6 72.7 612.5 73.6C614 75.1 614.2 75.1 615.9 73.6C618.1 71.6 618.1 71.6 623 73.7C625.5 74.8 627 76.1 627 77.3C627 78.3 627.8 79.3 628.8 79.6C631.4 80.5 635.3 82.1 637.5 83.3C638.6 84 642.7 84.8 646.5 85.2C650.4 85.5 655 86.2 656.8 86.5C658.9 87 660.6 86.8 661.6 86C662.9 84.9 663.2 85 663.7 86.8C664.3 89.3 668.5 89.9 669.3 87.6C669.8 86.4 670.6 86.3 673.2 87.1C675 87.7 677.8 88.5 679.4 88.9C681.5 89.4 682.6 90.4 683.3 92.5C684.4 96 685.9 98 687.1 98C687.6 98 690 96 692.3 93.5C695.6 90 697 89.1 698.8 89.6C701 90.2 701.9 92 700 92C699.5 92 699 92.6 699 93.3C699 94.9 708.5 94.7 710.5 93C711.9 91.8 713 93.6 713 97.1C713 98.4 713.7 99 715.3 99C716.5 99 719.3 99.7 721.5 100.4C724.9 101.6 725.9 101.6 728.1 100.5C731.9 98.5 735.6 99.8 737.9 104C740.4 108.8 742.8 108.8 747.2 104.3C750.8 100.6 750.9 100.4 749.7 97C748 92.2 746 88.8 743.8 86.9C742.8 86 742 84.9 742 84.4C742 82.8 730.4 70.1 726.6 67.5C724.6 66.1 722 65 720.9 65C717.4 65 711.7 61.4 704.9 54.8C694.9 45.3 694.3 44.8 677.8 36.7C656.5 26.2 648.2 22.7 642 21.3C640.6 21 639.1 20.4 638.5 20C638 19.5 635.8 18.9 633.7 18.5C631.7 18.1 629.7 17.4 629.4 16.9C629.1 16.4 627.4 16 625.5 16C623.6 16 621.8 15.5 621.5 15C621.2 14.4 619.4 14 617.6 14C615.9 14 613.9 13.5 613.3 12.9C612.7 12.3 606.7 11.7 598.6 11.6C589.8 11.4 584.5 10.9 583.8 10.2C583.1 9.50002 580.2 9.00002 577.4 9.00002C574.5 9.00002 571.8 8.50002 571.5 8.00002C571.2 7.40002 569.9 7.00002 568.6 7.00002C567.4 7.00002 565.5 6.30002 564.4 5.50002C563.3 4.70002 560.2 4.10003 556.9 4.00003C553.9 4.00003 551 3.60003 550.4 3.00003C549.9 2.50003 540.9 1.90003 530.5 1.60003C520 1.40003 505 0.900031 497 0.500031C487.7 0.100031 482.1 0.200031 481.5 0.800031ZM613.4 45.9C614.6 47.1 616.2 48 616.8 48C618.4 48 619.5 52.9 618.2 54.2C616.9 55.5 610.1 54.8 603 52.5C600 51.6 596.3 50.6 594.8 50.3C593.3 50 591.9 49.1 591.5 48.3C591.2 47.4 591.1 46.7 591.2 46.6C601.2 41.9 608.9 41.7 613.4 45.9Z" fill="white"/>
<path id="Vector_2" d="M499.6 112.5C498.1 113.3 495.8 114 494.6 114C493.4 114 492 114.4 491.5 114.9C490.9 115.4 487.4 116.5 483.5 117.5C477.6 118.9 475.8 119.9 472.2 123.6C469.9 126 467.5 128 466.9 128C465.6 128 461.1 132.9 459.9 135.5C459.4 136.6 458.6 138.2 458.1 139C457.6 139.8 456.5 142.1 455.6 144.1C454.7 146.1 453.4 148 452.6 148.3C450.8 149 440.7 166 438.9 171.5C438.1 173.7 436.5 176.5 435.3 177.7C433.7 179.2 433 181.1 433 183.5C433 185.4 432.6 187.8 432.1 188.8C431.7 189.7 430.5 191.9 429.6 193.7C428.7 195.4 428 198.6 428 200.8C428 203.1 427.6 205.2 427 205.5C426.5 205.8 426 209 426 212.4C426 216.1 425.4 220 424.5 221.6C423.7 223.2 423 226 423 227.9C423 232.3 421.5 236.7 416.9 245.5C414.9 249.3 412.7 254.3 412 256.5C410.7 260.5 407.5 265.9 405.6 267.2C405 267.6 405.3 268.2 406.5 268.6C407.6 269.1 408.5 268.9 408.8 268.2C409 267.5 411.2 267 414.3 267C417.1 267 420.7 266.6 422.4 266.1C425.1 265.2 429.4 264.4 440 262.5C441.4 262.3 453.3 261.6 466.5 261C479.7 260.3 491.5 259.6 492.8 259.4C496.1 258.7 494.5 257 490.5 257C488.6 257 486.9 256.6 486.6 256.1C486.3 255.7 484.2 255 481.9 254.7C479.7 254.4 477.3 253.4 476.6 252.4C475 250.3 463.7 249.1 462.6 250.9C461.7 252.2 458 252.4 458 251.1C458 250.5 458.5 249.8 459 249.5C459.6 249.2 460 248 460 246.9C460 245.7 460.7 245 461.9 245C463 245 464.1 244.6 464.4 244.1C464.7 243.6 467.5 243 470.5 242.8C474.8 242.4 476.4 241.8 477.6 240.2C478.8 238.5 480.1 238 483.4 238C486.1 238 488.2 237.4 489 236.5C490 235.3 493.1 235 504.9 235C515 235 520 234.6 520.8 233.8C521.7 232.9 522.3 232.9 523.2 233.8C523.9 234.5 526 235 527.9 235C530.9 235 532.4 235.9 537 240.6C540 243.7 543.5 246.6 544.8 247.1C547.1 248 547.7 250.9 545.9 252.7C545.3 253.3 545 255.5 545.2 257.6L545.5 261.5L554.6 261.8C559.5 261.9 569 261.3 575.6 260.4C582.1 259.5 589.4 258.9 591.8 258.9C595.4 259.1 596 258.8 596 257.1C596 256 596.5 254.8 597.1 254.4C597.8 254 597.2 252.9 595.4 251.4C592.5 249.1 592.5 249.1 594.3 246C595.2 244.3 596 242.2 596 241.5C596 240.8 596.3 240 596.8 239.8C598.1 239.2 601 232.9 601 230.5C601 227.6 604.1 226.4 606.8 228.1C608.4 229.1 609.6 229 613.2 227.7C615.6 226.7 618.7 226 620 226C621.4 226 624.1 225.8 626.1 225.4C628.2 225.1 630.7 225.3 632 226C633.2 226.7 640.1 227.3 647.8 227.6C661.4 228 661.5 228 669.6 232C674.1 234.2 678.5 236.9 679.5 238C680.5 239.1 682.2 240 683.2 240C684.3 240 685.5 241.1 686 242.5C686.5 243.9 687.6 245 688.3 245C689 245 690.7 246.1 691.9 247.4C694.6 250.3 698.2 251 711.5 251.7C717 251.9 721.9 252.6 722.4 253.1C723 253.6 724.7 254 726.3 254C728.4 254 729.1 253.6 728.7 252.6C728.4 251.8 727.8 249.5 727.4 247.6C727.1 245.6 726.4 243.7 725.9 243.4C725.4 243.1 725 241.7 725 240.2C725 238.7 723.9 235.5 722.5 233.1C721.1 230.8 720 227.8 720 226.6C720 225.4 719.6 224 719 223.4C718.5 222.9 717.8 219.8 717.4 216.5C717 213.2 715.9 209.3 714.9 207.8C713.8 206.4 713 204.6 713 203.9C713 201.6 692.8 182 690.5 182C689.3 182 687.5 181.3 686.4 180.5C685.4 179.7 683.4 179 682 179C680.6 178.9 677.7 177.8 675.5 176.5C671.9 174.4 668.4 172.5 660 167.9C658.6 167.1 654.9 163.9 651.7 160.7C648.5 157.6 645 155 644 155C642.9 155 642 154.6 642 154.1C642 153.7 639 153 635.3 152.7C631.6 152.3 628.2 151.6 627.6 151C627.1 150.5 625.4 150 623.9 150C622.4 150 620.8 149.5 620.5 149C620.2 148.4 617.5 148 614.6 148C611.1 148 608.8 147.5 608 146.5C607.3 145.7 606.1 145 605.3 145C602.9 145 597.9 142 598.6 140.9C599.6 139.3 596 136.1 592.4 135.4C590.6 135.1 588.5 134.1 587.9 133.3C585.8 130.8 579.3 128 575.6 128C573.7 128 571.8 127.5 571.5 127C571.2 126.4 569.2 126 567.1 126C564.9 126 562.7 125.4 562 124.5C561.3 123.7 559.8 123 558.5 123C557.3 123 555.5 122.1 554.6 121.1C553.6 120 550.8 118.9 547.9 118.5C545.2 118.1 542.8 117.4 542.4 116.9C542.1 116.4 539.2 116 536 116C531.6 116 528.9 115.4 525.4 113.5C521.4 111.4 519.4 111 511.6 111C505.5 111 501.6 111.5 499.6 112.5Z" fill="white"/>
<path id="Vector_3" d="M767.5 132C767.2 132.5 765.4 133 763.5 133C760.1 133 758.1 134.4 760 135.5C761.5 136.4 761.2 138 759.5 138C757.4 138 757.6 138.9 760.3 141.1C763.2 143.5 770.7 143.6 773.5 141.2C777.5 137.8 778.2 136.4 776.9 133.6C775.9 131.5 775 131 771.9 131C769.8 131 767.8 131.4 767.5 132Z" fill="white"/>
<path id="Vector_4" d="M653.6 258.5C652.6 259.3 649.7 260.2 647.3 260.6C644.8 261 642.6 261.9 642.3 262.6C642 263.4 640.9 264 639.9 264C637.3 264 630.5 268.9 628.5 272.4C627 274.7 627 275.4 628.1 276.1C629.7 277.1 639 276.2 640.5 274.9C641.7 273.7 652.7 273.7 653.4 274.9C653.8 275.4 656.3 276.1 659 276.5C661.7 276.9 664.2 277.6 664.6 278.1C664.9 278.6 666.1 279 667.4 279C670.7 279 685.2 286.5 688.5 289.9C690.2 291.7 691 293.5 690.7 294.4C690 296.1 686 296.6 686 295C686 293.5 680.7 293.8 677.2 295.6C674.5 296.9 674 297.7 674 300.9C674 302.9 673.5 305.1 672.8 305.8C671.1 307.5 672.8 308.6 675 307.2C678 305.4 688.6 305.7 691.8 307.7C697.3 311.2 696.9 313.1 690.7 312.8C686.9 312.5 686.5 312.7 686.2 315C685.7 318.4 684.2 320 681.5 320C680.2 320 677.8 321.1 676.2 322.5C674.4 324 672 325 670.2 325C668.5 325 666.8 325.5 666.5 326C666.1 326.6 665.4 326.7 664.8 326.4C664.2 326 658.7 325.5 652.6 325.3C641.9 324.9 641.2 324.7 632.5 320.6C627.6 318.2 622.4 315.9 621 315.5C619.7 315.1 617 313.2 615 311.4C613.1 309.5 611.1 308 610.5 308C610 308 607.8 306.4 605.7 304.4C603.6 302.4 601.6 301.1 601.2 301.5C600.8 301.9 601.1 302.5 601.8 302.7C602.4 303 603 304.4 603 305.8C603 307.3 603.7 309.4 604.5 310.4C605.3 311.5 606 313.4 606 314.6C606 315.9 606.5 317.2 607 317.5C607.6 317.8 608 320.8 608 324C608 328.5 608.6 331 610.6 334.7C612.1 337.3 613.9 340.7 614.6 342.1C617.1 346.8 626.1 354 629.5 354C630.2 354 631.3 354.7 632 355.5C632.7 356.3 634.7 357 636.6 357C638.4 357 640.2 357.4 640.5 358C640.9 358.6 649.2 359 662 359C674.8 359 683.1 358.6 683.5 358C683.8 357.4 687.4 357 691.3 357C696 356.9 699.2 356.4 700.4 355.5C701.5 354.7 703.8 354 705.5 354C708.7 354 714.5 351.7 715.5 349.9C715.9 349.4 716.8 349 717.6 349C719.1 349 724.9 343.2 725 341.7C725 341.2 725.9 339.6 726.9 338.1C730.9 332.5 732.1 324.1 732.1 301.8C732.1 281.1 731.2 274.4 728.3 270.9C727.6 270.1 727 269 727 268.6C727 266.9 723.1 264.2 718 262.3C714.1 260.8 709.1 260 700.8 259.6C694.4 259.3 687.9 258.5 686.5 258C682.2 256.4 655.9 256.8 653.6 258.5Z" fill="white"/>
<path id="Vector_5" d="M747.9 266.2C747.9 266.4 747.8 268 747.7 269.8C747.5 272.1 748 273.2 749.3 273.6C750.2 273.9 751 274.8 751 275.7C751 278.8 754.6 284.7 760.7 291.7C764.2 295.7 767.3 299 767.8 299C769.2 299.1 769.1 295.2 767.6 293.7C766.7 292.8 766 291.4 766 290.5C766 287.8 762.3 281.5 758.1 276.9C755.9 274.5 754 272 754 271.4C754 269.7 748.3 264.9 747.9 266.2Z" fill="white"/>
<path id="Vector_6" d="M459.5 267.9C458.9 268.4 454 269.1 448.5 269.3C438.9 269.7 432.3 270.9 427 273.3C416.9 277.9 413.3 283 412.1 294.4C411.4 302.3 412.3 320.1 413.8 327C414.4 329.5 415.2 333.3 415.6 335.5C418.2 350.3 431.1 363.7 442.8 363.9C444.6 364 447 364.4 448 365C449 365.5 456 366.4 463.6 367C474.9 367.9 479.9 367.8 490 366.6C512.7 363.9 513.5 363.6 523.8 358C531 354.1 540.7 336 542.5 323C543.5 316 545.3 308.2 546.6 305.3C547.3 303.6 548 300.4 548 298.2C548 295.9 548.5 293.8 549 293.5C549.6 293.2 550 290.9 550 288.5C550 286.1 549.6 283.8 549 283.5C548.5 283.2 548 281.9 548 280.6C548 277.5 542.4 272.6 536.6 270.6C528.8 268 527.7 270.4 534 276.5C537.5 279.9 538 280.9 538 285C538 287.5 537.3 290.4 536.5 291.4C535.7 292.5 535 294.8 535 296.6C535 298.4 534.6 300.1 534.1 300.4C533.6 300.7 533 303.4 532.8 306.5C532.3 312.8 530.3 315.1 521 319.8C518 321.4 514.5 323.2 513.3 323.8C512 324.5 510.1 325.5 509 326C507.9 326.6 504.8 327.3 502.2 327.7C499.6 328 496.9 328.7 496.3 329.3C495.4 329.9 494.5 329.9 493.6 329.1C492.6 328.2 491.6 328.2 489.5 329.2C487.5 330.1 486.4 330.1 485.1 329.3C484.1 328.7 481.1 327.9 478.4 327.5C473.3 326.8 469 325.2 467.8 323.5C466.6 321.9 466.9 320 468.4 320C469.1 320 470.3 319.3 471 318.5C471.7 317.7 473.1 317 474 317C475 317 476.8 315.4 478.1 313.4L480.3 309.7L478 308C474.6 305.4 461.8 304.4 457.8 306.5C453.1 308.8 448.9 308.3 451 305.6C455 300.6 459.6 296 460.7 296C461.4 296 462 295.6 462 295.1C462 294.7 464.7 292.8 468 291.1C471.2 289.3 474.2 287.5 474.5 287C474.9 286.4 476.4 286 478 286C479.6 286 481.2 285.5 481.5 285C481.8 284.4 484.5 284 487.4 284C490.9 284 493.2 283.5 494 282.5C494.8 281.5 497.1 281 500.9 281C505.7 281 507 280.6 508.9 278.6C511.9 275.4 511.3 272.8 507.3 271.8C505.5 271.3 503.6 270.1 503 269C502 267.1 500.8 267 481.2 267C469.6 267 460 267.4 459.5 267.9Z" fill="white"/>
<path id="Vector_7" d="M566.8 276.2C562.6 277.3 558 281.1 558 283.5C558 285.4 561.2 286.8 561.8 285.2C562.2 283.8 569 283.6 569 284.9C569 285.4 568.1 286.2 567 286.5C563 287.8 557 299 557 305.1C557 307.2 556.6 309.1 556.1 309.4C555.7 309.7 555 311.7 554.8 313.8C554.5 315.9 553.3 319.6 552.1 322C551 324.4 550 327 550 327.8C550 328.6 549.4 330.4 548.6 331.8C546.7 335.5 545 341.2 545 343.8C545 344.9 544.6 346.1 544.1 346.4C543.7 346.7 543 348.3 542.7 349.9C542.2 352 540.4 353.9 535.8 357.1C527 363.2 524.6 367.9 525.5 377.7L526.1 384.8L520.6 388.5C514.1 392.8 505.3 402.1 502.5 407.6C501.4 409.7 499.6 413.1 498.5 415C497.3 416.9 495.8 420.5 495.1 423C494.4 425.5 493.3 428.4 492.8 429.4C492 431 492.2 431.7 494 433.2C496.7 435.4 497.4 435.4 499 433.5C502.7 429.1 505.2 434.3 501.9 439.6C499.5 443.5 499.8 444 505.2 445.8C508.3 446.9 509.4 446.9 511.7 445.7C513.2 444.9 517.2 443.7 520.5 443C525.7 442 532.3 439.4 539.4 435.8C540.4 435.3 543.7 434.6 546.7 434.3C549.6 434 552.3 433.3 552.6 432.9C552.9 432.4 555.2 432 557.7 432C561.1 432 563.2 431.3 565.6 429.5C567.6 428 570.2 427 572.2 427C574.1 427 576.1 426.5 576.8 425.8C577.7 424.9 578.3 424.9 579.2 425.8C580.8 427.4 592.2 427.4 593.8 425.8C596 423.6 608.3 424.6 613.4 427.5C617.2 429.6 619.2 430 626.4 430C631.1 430 635.2 430.4 635.5 431C635.8 431.6 640.5 432 646 432C651.5 432 656.2 432.4 656.5 433C656.8 433.5 658.6 434 660.4 434C664.4 434 667.5 431.1 666.5 428.1C665.4 424.7 659.9 420 656.8 420C655 420 653.7 419.4 653.3 418.2C652.9 417.3 651.7 415.5 650.4 414.2C647.7 411.4 648.2 408.5 651.9 406.2C653.3 405.3 654.7 404.5 654.8 404.4C656 403.6 653.5 400 651.9 400C649.7 400 649.4 398 651.3 396.1C652.3 395.1 652 394.5 649.8 392.8C648.2 391.7 647 390.3 647 389.6C647 388 640.3 381.2 637.9 380.5C635 379.5 633.2 375.6 632.5 368.9C632.2 365.4 631.4 362.3 630.8 362.1C630.2 361.9 627.8 360 625.6 358C623.3 355.9 620.2 353.5 618.5 352.6C610.9 348.5 608 346 608 343.8C608 342.8 607.6 342 607 342C606.5 342 606 341.2 606 340.1C606 339.1 605.3 337.7 604.5 337C603.7 336.3 603 334.9 603 334C603 333 602.6 332 602.2 331.8C601.1 331.4 594.2 317.2 593.4 313.7C593.1 312.2 592.4 310.7 591.9 310.4C591.4 310.1 591 308.3 591 306.4C591 304.5 590.6 303 590 303C589.5 303 589 302 589 300.7C589 299.4 588.3 297.5 587.5 296.4C586.7 295.4 586 293.8 586 293C586 292.1 585.1 290.8 584 290C582.9 289.2 582 288 582 287.3C582 286.6 582.9 286 584 286C586.8 286 586.6 281.9 583.7 279.2C579.6 275.3 573.8 274.3 566.8 276.2ZM617.8 371C622.1 373.6 623.9 377.4 622.1 380.2C621 382 621 382.4 622.4 383.2C623.3 383.7 624 384.5 624 385C624 386.6 619.3 391 617.7 391C616.8 391 615.8 391.4 615.5 392C615.2 392.5 614 393 613 393C611.6 393 610.9 392 610.4 389.5C609.9 386.6 609.4 386 607.9 386.5C606.8 386.9 604.5 386.7 602.7 386.2C601 385.6 598.3 384.9 596.9 384.6C595.4 384.3 594 383.2 593.7 382.1C593.1 379.6 595.7 374.2 598 373.5C598.9 373.2 600.5 372.1 601.5 371C604 368.2 613.2 368.2 617.8 371ZM559.5 375C559.8 375.5 561.1 376 562.4 376C566.8 376 571.7 382.9 569.7 386.2C568.8 387.5 569 388.3 570.3 389.8C572.4 392.1 572.4 393.4 570.6 394.9C569.4 395.9 568.7 395.7 567.1 394.1C565.4 392.4 564.5 392.2 562.5 393C557.6 394.9 559.6 396.7 567.8 398C580.6 399.9 587.1 400.3 588.3 399.1C588.9 398.5 590.7 398 592.4 398C595.3 398 598.3 397.2 606.4 394.4C609.9 393.2 610.4 393.2 611.6 394.8C612.3 395.7 613 398.8 613 401.6C613 405.8 613.5 407.2 615.6 409.3C617.9 411.6 618 412.1 616.6 412.6C615.6 413 612.5 413 609.7 412.7C605.1 412.1 604.2 412.3 602.1 414.5C599.7 417.1 599 417.2 584.5 417.1C568 417 569.4 417.3 567.7 413.7C566.3 410.8 564.4 409.5 558.8 407.6C557.4 407.2 557 405.9 557 401.5V396L549 396.2C541.4 396.3 540.8 396.1 538 393.5C533.7 389.4 533.8 383.5 538 379.5C539.7 377.9 542.3 376 543.8 375.4C547.1 373.9 558.6 373.6 559.5 375Z" fill="white"/>
<path id="Vector_8" d="M739.7 277.6C739.3 278 739 287 739 297.6C739 309.4 738.6 317.1 738 317.5C737.5 317.8 737 319.8 737 321.9C737 323.9 736.6 326 736.1 326.6C735.7 327.1 734.5 330 733.6 333C730.8 341.8 728.2 346.4 724.4 349.5C721 352.2 719.8 352.9 714.5 355.7C713.4 356.2 711.5 357.2 710.3 357.8C709 358.5 706.7 359 705.1 359C703.4 359 701.9 359.4 701.6 359.9C701.2 360.4 698.7 361.1 696 361.5C693.3 361.9 690.8 362.6 690.4 363.1C690.1 363.6 686.6 364 682.6 364C678.7 364 675 364.4 674.4 364.9C673.9 365.5 671 366 668 366.2C663.4 366.4 662.3 366.9 661.5 368.8C661 370 659.7 371.3 658.6 371.6C656.8 372.2 656.8 372.3 658.4 373.2C659.3 373.7 660.5 375.1 661.1 376.3C661.6 377.5 662.4 379.2 662.8 380C665.1 384 666 386.1 666 387.3C666 388 669.4 392.1 673.6 396.4C680.8 403.9 683.8 407.8 686 412.9C686.6 414.2 687.9 416.4 689 417.8C690.7 419.9 691 421.8 691 430.6C691 437.8 690.6 441.1 689.7 441.7C689.1 442.1 687.9 443.8 687.1 445.5C686.4 447.1 685.2 449.6 684.5 451C681.7 456.3 679 464.6 679 467.7C679 472.6 676 478.1 673.6 477.8C672.4 477.6 671.3 476.6 671.1 475.5C670.9 474.4 670 472.8 669.1 472C666.5 469.5 665.1 464.2 665.7 458.9C666.3 454.1 666.2 454 663.6 454C662.2 454 658.2 455.3 654.8 456.9C649.7 459.3 646.5 460 638.3 460.5L628 461.2V458.2C628 454.9 630.1 453 633 453.7C635.4 454.3 640 451.2 640 448.9C640 445.7 638.1 445.8 635.1 449.1C633.5 450.8 631.7 451.9 631.1 451.6C630.5 451.2 630 448.4 630 445.4C630 439.2 628.5 437.8 624.8 440.4C622 442.4 619.1 442.4 616.6 440.5C615.5 439.7 613.7 439 612.5 439C611.3 439 609.5 439.7 608.4 440.5C606.3 442.1 601 442.5 601 441.1C601 440.6 600 439.8 598.8 439.4C597.6 439.1 595.7 437.9 594.6 436.9C591.6 434 589.7 434.6 586.2 439.5C583.4 443.5 582.6 444 579.1 444C576.9 444 574.8 443.5 574.5 443C574.2 442.4 572 442 569.6 442C566.1 442 564.7 442.6 561.8 445.4L558.2 448.9L555.9 446.4C554.3 444.7 552.6 444 549.8 444C546.4 444 545.8 444.4 544 448.1C542 451.9 542 452.3 543.5 454C544.5 455 545 457 544.8 458.6C544.5 461 543.9 461.6 540.5 462.4C532.4 464.1 518.4 464.3 515.1 462.6C512.9 461.4 508.9 461 499.3 461C485.6 460.9 483.1 460.1 481.6 455.3C481.2 454.2 479.2 452 477 450.5C472 447 470.1 444.1 470.1 439.9C470.2 438 469.9 435 469.5 433.2C469 431.1 469.2 430 469.9 430C470.5 430 471.6 428.4 472.5 426.5C473.3 424.5 474.6 422.2 475.5 421.4C476.3 420.5 477 418.9 477 417.6C477 416.4 478.6 413.9 480.5 412C482.4 410.1 484 408.1 484 407.5C484 406.2 488 402.5 492.2 399.8C493.6 398.8 495.5 396.6 496.4 394.9C498 391.7 498 391.6 495.4 388.9C492.7 386 490.5 385.2 482.5 384.2C478.4 383.6 477.4 383.1 477.2 381.4C476.9 379.6 477.8 379 482.2 377.6C485.1 376.7 488.4 375.5 489.5 375C490.6 374.6 492.9 373.8 494.5 373.4L497.5 372.7L495 372C490.9 370.7 484.5 370.9 480.9 372.4C478 373.5 476.7 373.6 472.5 372.4C469.8 371.7 462.7 371.1 456.8 371C450.8 371 445.8 370.6 445.5 370C445.2 369.4 443.2 369 441.2 369C431.8 369 418.4 357.6 414.1 346C412.8 342.4 411.6 337.8 411.3 335.7C411 333.7 410.4 331.7 409.9 331.4C409.4 331.1 409 329.2 409 327.1C409 325.1 408.5 322.9 407.8 322.2C407 321.4 406.5 315.8 406.2 306C405.8 292.3 405.6 291 403.9 291C401.1 291 400.3 297.3 402.3 303.1C404.2 308.3 404.5 311.6 403.1 312.5C402.5 312.8 401.8 315.1 401.4 317.5C401.1 320 400.4 322.3 399.9 322.6C398.7 323.3 398.7 388.7 400 390.9C400.5 391.9 401 396 401.1 400.1C401.2 404.2 401.7 408.6 402.3 410C404.5 415.8 406.6 429 407.3 442C407.5 446.2 407.3 446.5 405 446.5C402.9 446.5 402.3 445.6 400.5 440.5C399.4 437.2 398.2 434 397.9 433.5C397.6 432.9 396.5 429.6 395.6 426C394.6 422.4 393.4 418.6 392.9 417.5C388.4 406.8 388.2 405.2 390.6 401.5C391.5 400.1 392 397.6 391.8 395.3C391.6 392.2 391.1 391.4 389.3 391.2C387.2 390.9 387 390.3 387 385C387 381.8 387.5 378.8 388 378.5C388.6 378.2 389 375.5 389 372.5C389 369.5 388.6 366.8 388 366.5C387.5 366.2 387 364.4 387 362.6C387 360.8 386.3 358.5 385.5 357.4C383.6 354.9 383.6 351.8 385.7 347.5C387.4 344 387.3 344 384.7 341.2C383.2 339.7 382 338 382 337.4C382 336.9 380.1 334.3 377.7 331.7C374.6 328.2 373 327.1 371.7 327.5C370.8 327.9 370 328.8 370 329.5C370 330.2 369.3 331.3 368.5 332C367.5 332.8 367 335.1 367 339.1C367 342.3 366.6 345.2 366 345.5C365.4 345.8 365 350.3 365 355.5C365 360.7 365.4 365.2 366 365.5C366.6 365.8 367 369.4 367 373.5C367 381.6 367.6 384 369.5 384C370.2 384 371.1 384.7 371.4 385.6C372.4 388.2 372.1 398.8 371 399.5C369.7 400.3 369.7 410.4 371 413C371.5 414.1 372.4 415.9 373 417C373.5 418.1 374 419.6 374 420.4C374 421.2 375.3 424.4 376.9 427.6C378.5 430.9 380.3 435.3 381 437.5C381.7 439.7 382.6 442.3 383.1 443.2C383.6 444.2 384 445.5 384 446.1C384 448.7 389.3 457.9 392.5 461C394.4 462.9 396 464.9 396 465.5C396 467.2 400 470.5 403.8 472C406.4 473 407.3 473 408.5 472C409.8 471 410.4 471 412 472.5C414.8 475 419 483.9 419 487.2C419 488.7 419.5 490 420 490C420.6 490 421 490.9 421 491.9C421 493 421.5 494.2 422 494.5C422.6 494.8 423 496.1 423 497.3C423 498.5 424.1 501.7 425.4 504.5C426.7 507.2 428.8 511.7 430 514.4C431.2 517 435.1 522.5 438.6 526.5C442.1 530.6 445 534.2 445 534.5C445 535.8 453.9 544 455.3 544C456 544 457.7 545.1 459 546.5C461.8 549.5 462.2 549.5 467.4 547.1C469.7 546 473.6 544.8 476.1 544.5C480.3 543.9 480.9 544.1 482.8 546.5C485.1 549.4 487 549.1 487 545.9C487 543.4 489.6 543.4 491 546C491.6 547.1 493.5 548.3 495.3 548.8C498 549.5 498.6 550.1 498.8 552.9C499.1 556 499.3 556.1 503.3 556C505.6 555.9 509.8 555.9 512.5 555.9C517.3 556 517.7 556.2 518.8 559.3C519.5 561.1 520 563.4 520 564.3C520 566.4 521.4 566.5 523 564.5C524.7 562.4 526 562.6 529 565.5L531.7 568L533.5 566C536.4 562.8 538 563.5 538 567.9C538 571.8 538 571.8 541.6 571.5C543.6 571.4 545.9 570.5 546.8 569.6C548.3 568.1 548.6 568.2 551.2 570.7C553.4 572.8 554.3 573.1 555.2 572.2C555.9 571.5 558.8 571 561.7 571H567V576.5C567 581.1 567.3 582 568.8 582C569.8 582 571 581.6 571.6 581C573.1 579.5 585.1 579.5 586 581C586.6 582 587.4 581.9 589.6 580.4C591.2 579.3 593.9 577.8 595.5 577.1C597.2 576.4 599.3 575.4 600.3 574.9C601.2 574.4 603.2 574.3 604.6 574.6C607.6 575.4 609 573.9 609 569.9C609 566.6 613.7 561.3 617.1 560.8C619 560.6 619.6 559.8 619.8 557.4C620.1 554.7 620.6 554.1 623 553.8C626 553.3 628 554.5 628 556.6C628 558.4 633.3 559 635.1 557.4C635.9 556.6 637.6 556 638.7 556C639.8 556 641.9 555.1 643.3 554C645.3 552.4 646.4 552.2 648.3 552.9C650.3 553.7 651.2 553.5 652.4 552.1C653.3 551.1 654 549.6 654 548.7C654 547.8 655.4 546.1 657 544.8C658.7 543.6 660 542.1 660 541.5C660 540.8 660.9 539.5 662.1 538.5C663.8 536.9 664.5 536.8 667.3 537.8C670.3 538.9 670.6 538.8 674.2 534.9C676.2 532.7 678 530.1 678.2 529.2C679 525.3 686 528.2 686 532.5C686 533.3 686.5 534 687 534C687.6 534 688 533.3 688 532.6C688 531.8 689.4 529.1 691 526.6C694.1 522.1 694.1 522.1 696 524C698.3 526.3 698.4 527.3 696.8 530C695.8 531.6 695.8 532.4 696.7 534C697.5 535.2 697.6 536.1 697 536.5C696.4 536.8 696 538 696 539.2C696 540.9 696.4 541.1 698.8 540.5C707.3 538.4 710.5 539 706 541.8C704.8 542.5 703.5 544.1 703 545.4C702.1 547.8 697 551 694 551C693.1 551 689.9 553.2 687 556C684.1 558.7 681.1 561 680.3 561C679.6 561 679 561.4 679 562C679 562.5 678.4 563 677.6 563C675.4 563 664.4 568.9 662.4 571.1C661.5 572.1 659.6 573 658.2 573C654.6 573 647.6 576.6 633.4 585.8C632.4 586.4 630.8 587.3 630 587.6C625.9 589.2 619.3 592.5 617.8 593.8C616.7 594.7 616 594.8 615.5 594.1C614.7 592.6 610.3 592.7 609.8 594.2C609.5 594.9 606.7 595.3 601.7 595.2C597.5 595.2 593.8 595.6 593.5 596.1C593.1 596.6 590.7 597 588.1 597C585.4 597 581.5 597.7 579.5 598.6C576.5 599.8 574.8 600 571.6 599.1C569.3 598.6 566.8 598.1 566 598.1C565.2 598.1 562.5 597.6 560 597C557.5 596.3 553.5 595.6 551 595.3C548.5 595 545.6 594.1 544.5 593.4C543.4 592.6 540.9 592 538.8 592C536.8 592 534.8 591.5 534.5 591C533.6 589.6 528.3 589.7 527.4 591.2C526.9 592 526.4 591.6 525.9 590.2C525.5 589.1 523.5 587.4 521.6 586.5C519.6 585.5 518 584.4 518 583.9C518 583.4 517.4 583 516.6 583C515.9 583 514.7 582.3 514 581.6C513.4 580.8 511.2 579.6 509.2 579C505.7 577.9 498.5 574.7 491 571C489.1 570 486 569 484.2 568.6C482.3 568.3 479 566.4 476.7 564.5C474.5 562.6 471.7 561 470.4 561C469.2 561 467.7 560.3 467 559.5C466.3 558.7 465.2 558 464.5 558C463.9 558 462.5 557.1 461.4 555.9C459.3 553.6 454.1 550.6 453.4 551.3C453.1 551.5 452.8 553 452.5 554.6C451.9 559.3 449.4 569.2 447.5 574C446.6 576.5 445.6 579.6 445.3 581C445 582.4 444.4 584 443.9 584.5C443.5 585.1 443 587.9 442.9 590.8C442.7 593.7 442 596.5 441.3 597.1C439.6 598.6 439.6 604.1 441.5 606.6C442.5 607.9 442.9 611.3 443 618.2C443 623.5 443.4 628.2 444 628.5C444.6 628.8 445 630.4 445 632.1C445 633.7 445.4 635.8 446 636.8C446.5 637.7 447.9 640.7 449 643.5C451.6 649.7 451.3 649.3 458.2 657.7C461.3 661.5 464.7 666.4 465.9 668.5C468.2 672.9 473.6 678.8 480 684.2C486.9 689.9 489 692.3 489 694.1C489 695.1 491.3 697.3 494.6 699.2C498.6 701.7 500.7 703.8 502.3 707.1C503.8 710.1 505.2 711.6 506.8 711.8C508.1 712 509.4 712.8 509.7 713.5C509.9 714.3 511.6 715.8 513.3 716.8C515.2 717.9 517.5 720.7 518.9 723.6C520.3 726.3 522 729.1 522.7 729.8C523.4 730.5 524 731.5 524 731.8C524 732.2 525.6 734.3 527.6 736.5C529.5 738.7 532.2 742.9 533.5 745.7C534.8 748.6 536.5 751 537.2 751C539.3 751 545 757.3 545 759.6C545 760.7 544.4 762.2 543.8 762.9C542.7 763.9 542.8 764.3 544 765C548.4 767.6 549.5 768.9 548.3 770.1C546.2 772.2 546.8 773.5 552.1 778.6C556.4 782.8 560.2 788.9 562.3 795.2C562.7 796.4 564 797 565.8 797C569.3 797 572 799.7 572 803.3C572 806.1 573.9 811 575 811C575.4 811 578.3 813.4 581.5 816.4C586 820.7 587.1 822.3 586.5 823.9C586.2 825.1 585 826 583.9 826C582.9 826 582 826.4 582 826.8C582 828 585.4 831 586.7 831C587.2 831 588.5 831.9 589.5 833C591.2 834.9 591.2 835 588.6 835.9C586.4 836.8 586 837.6 586 840.9C586 843.9 586.5 845.1 588.5 846.4C589.9 847.3 591 848.7 591 849.5C591 850.2 592 851.6 593.1 852.4C594.8 853.6 595.1 854.5 594.5 856.7C594.2 858.2 593.4 860.1 592.8 860.7C591.2 862.6 589 862.3 589 860.1C589 859.1 588.3 857.7 587.5 857C586.7 856.3 586 854.8 586 853.6C586 852.5 584.6 849.9 583 848C581.3 846.1 579.7 843.6 579.4 842.5C579 841.4 577.3 838.5 575.6 836C573.9 833.5 572.1 830.8 571.5 829.9C568.6 825.3 558.6 812.9 554.6 809C552.1 806.6 550 804.1 550 803.5C550 800.9 544.5 797.1 540.2 796.8C536.1 796.5 535.7 796.3 534.4 792.5C533.7 790.3 533 787.8 533 786.9C533 786 532.4 784.7 531.7 784.1C530.9 783.5 529.8 781.1 529.1 778.8C528.4 776.4 527.5 773.8 527 773C526.6 772.1 525.9 770 525.6 768.3C525.2 766.6 524.2 764.6 523.3 763.9C522.5 763.2 521.4 761.7 520.9 760.5C518.8 755.8 515 750.6 507.3 741.6C502.7 736.3 499 731.7 499 731.2C499 730.8 497.9 729.3 496.5 727.8C495.1 726.3 494 724.7 494 724.3C494 723.9 490.6 720 486.5 715.7C482.4 711.5 479 707.5 479 707C479 706.4 478.2 705.2 477.3 704.2C474.5 701.2 472 698 472 697.4C472 697 470.4 694.6 468.5 692C466.6 689.4 465 686.8 465 686.3C465 685.7 463.9 684 462.5 682.4C461.1 680.8 460 679 460 678.3C460 677.6 457.9 674 455.3 670.3C445.2 655.9 433 628 433 619.3C433 615.2 431.9 614.6 429.2 617C428 618.1 426.5 619 425.8 619C425.1 619 423.6 619.7 422.6 620.5C421.5 621.3 419.9 622 419 622C418.1 622 416.4 622.9 415.2 624C414 625.1 412.4 626 411.7 626C410.9 626 405.4 631.7 399.4 638.7C386.9 653.5 385.9 654.6 382.5 658C376.7 663.7 374.2 665.8 367.8 670.3C361.8 674.5 360.4 675 353.5 675.6C349.4 676 345.7 676.7 345.4 677.1C345.1 677.6 343.4 678 341.7 678C338.1 678 332 679.5 327.5 681.4C325.9 682.1 321.8 683.7 318.5 685C315.2 686.3 311.7 688.2 310.7 689.2C309.7 690.2 307.5 691.3 305.9 691.7C304.4 692 302.5 692.9 301.9 693.6C301.3 694.4 299.5 695 298 695C296.5 695 294.7 695.7 294 696.5C293.3 697.3 289.8 699.4 286.2 701.1C282.6 702.8 277.9 705.7 275.7 707.5C273.6 709.3 270.7 711.1 269.3 711.5C268 711.8 264.6 713.6 261.8 715.5C258.8 717.6 255.6 719 253.8 719C251.9 719 248.9 720.3 246 722.5C243.4 724.4 240.6 726 239.8 726C237.9 726 230.7 729.7 229.5 731.3C229 732.1 226.5 733.9 224.1 735.4C221.7 737 218.8 739.2 217.6 740.4C216.4 741.6 214 743.2 212.1 744C210.3 744.7 207.7 746.4 206.4 747.7C203.9 750.2 196.9 753 193.2 753C191.7 753 190.6 753.7 190.3 755C189.8 756.8 188.6 757.6 182 760.4C179.2 761.7 176.5 763.5 174.3 765.7C173 767 171.4 767.7 170.7 767.4C169.9 767.1 168.7 767.6 168 768.5C167.3 769.3 165.5 770 163.9 770C162.3 770 161 770.3 161 770.7C161 771.9 155.1 775 153 775C152 775 150.8 775.4 150.5 776C150.2 776.5 149 777 148 777C147 777 143.5 779.2 140.4 782C137.3 784.7 134.2 787 133.5 787C132.9 787 130.9 788.6 129 790.5C127.1 792.4 125.1 794 124.5 794C123 794 112 805.3 112 806.8C112 807.5 111.6 808 111 808C110.5 808 106.8 810.9 102.9 814.5C99 818.1 95.4 821 94.9 821C94.3 821 92.9 822 91.7 823.3C90.5 824.5 88.3 826.1 86.9 826.8C85.5 827.6 82.4 829.9 80 832.1C77.7 834.2 75.4 836 74.9 836C74.4 836 73.1 837.9 72 840.2C70.9 842.6 69.6 845.2 69.1 846C66.7 850.4 66 852.1 66 853.5C66 854.4 64.9 856.8 63.5 858.8C62.1 860.8 61 863.3 61 864.4C61 865.4 59.9 867.7 58.7 869.4C57.4 871.1 55.8 874.2 55.1 876.2C54.4 878.3 53.4 880 52.9 880C52.4 880 51.7 881.2 51.4 882.7C51 884.3 49.6 888 48.2 891C46.9 894 45.3 897.6 44.8 899C44.2 900.4 42.7 903.6 41.4 906.2C40.1 908.9 39 911.6 39 912.2C39 912.9 37.9 915.7 36.6 918.5C35.3 921.2 33.6 926 33 929C32.3 932 31.3 935 30.8 935.7C30.3 936.3 29.2 942.1 28.4 948.7C27.5 955.2 26.4 961.4 26 962.5C24.8 965.7 23.1 974.1 22.5 980C21.4 991.4 19.7 1002.5 18.9 1003.6C18.4 1004.2 17.8 1010 17.5 1016.6C16.9 1028.3 15.7 1036.6 13.8 1042.5C12.6 1046.1 11.1 1053 10.3 1058.5C10 1060.7 9.40005 1063 8.90005 1063.6C8.40005 1064.2 7.80005 1067.2 7.40005 1070.3C7.00005 1073.5 6.30005 1076.3 5.90005 1076.6C5.40005 1076.9 5.00005 1080.2 5.00005 1084.1C5.00005 1087.9 4.60005 1091.8 4.00005 1092.8C1.90005 1096.7 0.600048 1113.7 0.600048 1139C0.500048 1161.7 0.800048 1166.6 2.40005 1173C4.50005 1181.5 5.60005 1199.3 4.20005 1202.4C0.700048 1210.1 0.600048 1212.9 0.600048 1271C0.700048 1317.9 0.900048 1329.8 2.10005 1335.5C3.00005 1339.3 3.90005 1343.2 4.30005 1344C4.70005 1344.8 5.10005 1353.6 5.40005 1363.5C5.80005 1383.5 7.40005 1401 9.00005 1403.9C10.5 1406.8 10.3 1441.3 8.80005 1442.8C7.00005 1444.6 7.00005 1475.6 8.80005 1478.7C10.2 1481.3 10.5 1510.1 9.10005 1511.6C6.30005 1514.5 6.20005 1546.8 9.00005 1551.9C9.50005 1553 10 1555.7 10 1557.9C10 1560.1 10.5 1562.2 11 1562.5C11.6 1562.8 12 1564.2 12 1565.6C12 1567 12.5 1569 13.1 1570.2C14.5 1572.7 16.1 1582.4 16.7 1591.5C16.9 1595.3 17.5 1600.1 18 1602C18.5 1603.9 19.6 1608.2 20.4 1611.5C21.2 1614.8 21.9 1619.6 22 1622.2C22 1625.7 23 1628.8 26.1 1634.7C28.4 1639 30.7 1642.7 31.1 1642.8C31.6 1643 32 1643.6 32 1644.2C32 1644.8 33.6 1647.4 35.5 1650C37.4 1652.6 39 1655.1 39 1655.4C39 1655.8 40.1 1657.1 41.5 1658.4C42.9 1659.7 44 1661.4 44 1662.2C44 1663.1 44.7 1664.4 45.7 1665.1C47.1 1666.3 51.8 1672.8 55.5 1678.9C56.1 1679.8 56.8 1680.7 57.1 1681C59.4 1683 64 1695.5 64 1699.9C64 1701.3 64.7 1703.3 65.4 1704.2C66.6 1705.9 73.2 1706 177.4 1706H288L292 1703.5C294.2 1702.1 296.4 1701 297 1701C297.6 1701 299.8 1699.9 302 1698.5C304.2 1697.1 306.6 1696 307.4 1696C308.2 1696 309 1695.6 309.2 1695.1C309.8 1693.6 317.9 1689 320.1 1689C321.4 1689 324 1687.3 326.1 1685C328.2 1682.8 330.3 1681 330.8 1681C332 1681 335.3 1684.9 337 1688.2C337.7 1689.8 338.7 1691 339.1 1691C339.5 1691 341.7 1694 344.1 1697.8C346.4 1701.5 348.8 1704.8 349.4 1705.2C350 1705.6 403.3 1706 467.8 1706C577.6 1706 585.2 1705.9 588.3 1704.2C592.9 1701.8 595.3 1699.8 596.6 1697.5C597.5 1695.8 600.8 1693.3 604.8 1691.4C605.4 1691.1 606 1689.3 606 1687.4C606 1685.5 606.4 1684 606.8 1684C607.3 1684 608.6 1682.3 609.8 1680.2C610.9 1678.2 613.7 1674.8 615.9 1672.6C620.3 1668.3 623 1668.3 623 1672.5C623 1673.9 623.5 1675.9 624.2 1676.9C626.1 1680 622.9 1685.1 616.5 1689.3C612.4 1692.1 611 1693.6 611 1695.4C611 1696.8 610 1698.7 608.6 1699.7C607.3 1700.7 606 1702.6 605.6 1703.8C604.9 1706 605 1706 614.8 1706C621.9 1706 625 1705.6 625.3 1704.7C625.7 1703.8 626 1703.8 627.1 1704.8C628 1705.7 633.6 1706 647.3 1706C664.5 1706 666.1 1705.9 664.9 1704.4C663.2 1702.3 663.2 1693.6 665 1691.5C666.1 1690.2 666.1 1689 665.1 1685C664.4 1682.3 664.1 1679.6 664.4 1679.1C665.6 1677.2 660.9 1670 657.5 1668.4C655.6 1667.5 653.4 1665.7 652.5 1664.4C651.7 1663.1 650.4 1662 649.6 1662C647.8 1662 645 1658.7 645 1656.7C645 1655.3 646 1655 649.8 1655C654 1655 655.1 1654.5 658 1651.5C659.9 1649.6 661.8 1648 662.3 1648C664 1648 665.9 1651.4 666 1654.2C666 1655.7 666.7 1659.5 667.5 1662.7C668.3 1665.8 669 1670.3 669 1672.7C669 1675 669.5 1677.2 670 1677.5C670.6 1677.8 671 1680.1 671 1682.6C671 1685.1 671.6 1688.5 672.3 1690.3C673.1 1692.1 674.3 1696.3 675 1699.8L676.4 1706H766.6H856.8L858.9 1702.4C860.1 1700.5 861 1697.8 861 1696.4C861 1693.7 866.8 1688.9 872.6 1686.8C874.5 1686.1 876 1685.2 876 1684.8C876 1684.4 876.6 1684 877.3 1684C879.1 1684 885 1678.5 885 1676.8C885 1676 886.1 1674.3 887.5 1673C888.9 1671.7 890 1669.9 890 1668.9C890 1668 890.3 1667 890.8 1666.8C891.6 1666.4 897 1655.9 897 1654.7C897 1654.2 897.7 1652.2 898.6 1650.2C899.5 1648.1 900.6 1645.6 901 1644.5C902.4 1641.4 903 1634 903.9 1614C904.3 1602.6 905.1 1594.4 905.9 1592.5C909.6 1584.1 910.8 1582.2 914.3 1578.4C918.1 1574.3 919.2 1572.7 922.4 1566.5C923.3 1564.8 925.1 1561.7 926.5 1559.5C928.6 1556 928.9 1554.3 929 1546.2C929 1537.9 928.7 1536.5 926.4 1532.7C924.9 1530.4 923.4 1528.3 923.1 1528C921.3 1526.5 916.4 1516.5 911.5 1504.7C910 1501 908.4 1497.7 907.9 1497.4C907.4 1497.1 907 1495.8 907 1494.4C907 1493.1 906 1490.3 904.7 1488.2C903.4 1486.2 901.7 1482.3 901 1479.5C900.2 1476.8 898.6 1472.6 897.3 1470.2C896 1467.9 895 1464.8 895 1463.5C895 1462.2 894.6 1460.8 894 1460.5C893.1 1460 891 1455.7 889 1450.5C888.6 1449.4 887.5 1446.8 886.6 1444.7C885.7 1442.6 885 1439.6 885 1438C885 1436.4 884.6 1434.8 884 1434.5C883.5 1434.2 883 1431.7 883 1429.1C883 1426.5 882.5 1423.9 881.9 1423.3C881.1 1422.5 881.4 1422 882.9 1421.5C884.1 1421.2 885 1420 885 1419C885 1415.7 887.9 1415.8 888.6 1419C889.1 1422 890.6 1425.9 891.6 1427.5C892.4 1428.6 893 1430.4 893 1431.5C893 1435.1 896 1442.2 899 1445.9C900.7 1447.8 902 1450.6 902 1452.1C902 1453.6 902.7 1455.3 903.5 1456C904.3 1456.7 905 1458.5 905 1460.1C905 1461.7 905.5 1463 906 1463C906.6 1463 907 1463.7 907 1464.6C907 1465.6 908.6 1468.2 910.5 1470.6C912.4 1472.9 914 1475.1 914 1475.4C914 1476.7 932.7 1494.1 934.7 1494.6C937.5 1495.3 939 1494.4 939 1491.9C939 1490.9 939.3 1490 939.8 1490C940.6 1490.1 946 1498.7 946 1500.1C946 1501.9 947.8 1500.9 950.8 1497.6C955.1 1492.7 955.5 1490.6 953.1 1486.4C951.1 1483 950.2 1475.5 951.8 1474.8C952.2 1474.7 953.2 1473.1 954.2 1471.3C956.8 1466.3 954.6 1465 943.7 1465C936.5 1465 934.9 1465.3 934.1 1466.8C933.5 1467.9 933.5 1469.2 934.2 1470.4C934.8 1471.5 935.6 1473.7 936 1475.4C936.4 1477.1 937.1 1479.3 937.5 1480.4C938.3 1482.2 938.2 1482.2 935.7 1480.5C934.2 1479.6 932.1 1477.2 930.9 1475.1C929.7 1473.1 927.7 1470.4 926.4 1469C925.2 1467.6 923 1464.4 921.6 1461.8C919.3 1457.6 919 1456.1 919 1446.8C919.1 1438.3 919.6 1435.1 921.8 1428.5C925.2 1418.7 926.9 1416 929.6 1416C930.7 1416 932.9 1417.3 934.5 1419C936.1 1420.6 938.3 1422 939.4 1422C943.1 1422 945.8 1420.9 946.4 1419.2C946.8 1418.2 948.4 1415 950 1412C951.7 1409 953 1405.7 953 1404.5C953 1403.4 953.6 1401.6 954.4 1400.5C955.1 1399.4 956 1396.9 956.3 1395C957.7 1387 958.3 1384.4 959.6 1382.5C960.4 1381.4 961 1378.9 961 1376.8C961 1374.8 961.4 1372.8 962 1372.5C962.5 1372.2 963 1369.5 963 1366.6C963 1363.7 963.3 1361 963.7 1360.6C966.6 1357.7 969 1340.8 969.6 1319C969.8 1309.9 970.4 1301.6 970.9 1300.5C971.4 1299.4 972.1 1294 972.4 1288.6C972.7 1283.1 973.4 1278.2 974 1277.6C974.5 1277.1 975 1275.1 975 1273.3C975 1271.6 975.5 1268.8 976.1 1267.3C978.6 1261 981.2 1256 981.9 1256C984 1256 995 1242.5 995 1239.9C995 1238.7 998.6 1238.2 1000.4 1239.2C1002.4 1240.3 1002.5 1246.7 1000.5 1249.4C999.6 1250.6 999 1253.5 999 1256.5C999 1259.3 998.6 1262 998.1 1262.6C997.5 1263.1 996.8 1266.6 996.4 1270.5C996 1274.5 994.9 1278.9 993.9 1280.6C991.8 1284.1 991.4 1289.5 993.1 1290.6C993.8 1291 994 1293 993.6 1296.4C993.2 1299.2 992.7 1303.9 992.3 1306.8C992 1309.7 991.4 1312.3 990.9 1312.6C990.4 1312.9 990 1316.4 990 1320.3C990 1326.1 989.5 1328.3 987.5 1331.9C985.8 1334.9 985 1337.7 985 1341.1C985 1343.8 984.5 1346.9 983.8 1347.9C982.9 1349.4 983 1350.1 984.4 1351.5C985.9 1353 987.3 1353.2 994.3 1352.7C998.8 1352.3 1004.7 1351.4 1007.4 1350.5C1010.1 1349.7 1014.3 1349 1016.8 1349C1021.2 1349 1021.3 1349 1019.5 1351C1018.5 1352.1 1017 1353 1016.2 1353C1015.5 1353 1013.4 1353.7 1011.7 1354.6C1005.9 1357.6 1005 1358 1003.7 1358C1002.9 1358 1000.2 1359.1 997.6 1360.5C995 1361.9 992.2 1363 991.4 1363C990.7 1363 990 1363.4 990 1363.8C990 1364.3 988.9 1365.2 987.6 1365.8C984.7 1367.1 978 1372.9 978 1374.1C978 1375.3 993.7 1375.2 994.5 1374C995.2 1372.8 1004 1372.6 1004 1373.8C1004 1375.3 1000.7 1377.7 993.6 1381.5C989.8 1383.5 984.3 1387.3 981.3 1389.8C976 1394.5 975 1396.4 973.4 1405.2L972.8 1409H976.3C978.3 1409 980.2 1408.5 980.5 1408C980.8 1407.4 981.8 1407 982.6 1407C983.4 1407 986.3 1405.9 989.2 1404.5C992 1403.1 995.4 1402 996.6 1402C997.9 1402 999.1 1401.6 999.4 1401.1C999.7 1400.7 1002.7 1400 1005.9 1399.6C1009.2 1399.2 1012.2 1398.5 1012.5 1398C1013.3 1396.8 1017.7 1396.7 1018.4 1397.9C1019.5 1399.6 1025.3 1400 1028.3 1398.5C1030.6 1397.3 1035.3 1397 1049.2 1397H1067V1399.5C1067 1401.2 1066.5 1402 1065.2 1402C1064.2 1402 1063 1402.4 1062.5 1402.9C1061.9 1403.4 1059.7 1404 1057.5 1404.3C1055.3 1404.6 1051.3 1405.3 1048.5 1405.9C1037 1408.2 1029.6 1409.2 1021.1 1409.5C1015.3 1409.7 1011.4 1410.3 1010.1 1411.2C1007.4 1413.1 1008.4 1414 1013.2 1414C1015.3 1414 1017.8 1414.4 1018.8 1414.9C1019.7 1415.5 1022.6 1416.2 1025.3 1416.5C1030.2 1417.1 1030.9 1419 1026.3 1419C1024.9 1419 1022 1419.5 1019.9 1420.2C1016.9 1421 1015.4 1421 1013.4 1420.1C1011.8 1419.4 1010.3 1419.3 1009.6 1419.8C1009 1420.3 1004.8 1420.8 1000.2 1420.9C995.7 1420.9 990 1421.5 987.7 1422.1C985.4 1422.7 982.3 1423.4 980.8 1423.7C979.3 1424 977.4 1425 976.5 1426C975 1427.7 975 1428 976.7 1430.7C977.7 1432.2 979.3 1434.1 980.2 1434.8C983.6 1437.3 982.4 1440.8 977.2 1444C968.8 1449.2 961.2 1461.1 962.4 1467.3C963.2 1471.1 966.6 1475 969.4 1475C970.6 1475.1 973.7 1477.1 976.3 1479.5C980.3 1483.2 981 1484.4 980.5 1486.2C979.4 1489.7 977 1492 974.4 1492C971.5 1492 968 1494.8 968 1497.2C968 1499.3 967.8 1499.3 983.5 1497.9C990.1 1497.4 996.8 1496.2 998.4 1495.4C1000 1494.6 1002.3 1494 1003.5 1494C1004.6 1494 1006 1493.6 1006.5 1493.1C1007.9 1491.8 1030.6 1490 1045.6 1490C1055.7 1490 1058 1490.3 1058 1491.4C1058 1493.4 1056.7 1494 1052.3 1494.1C1050.2 1494.2 1047.6 1494.8 1046.5 1495.5C1043.9 1497.1 1037.8 1497.9 1022.4 1498.8C1010 1499.5 1007 1500.5 1007 1504C1007 1505.2 1008.2 1506 1011.2 1506.6C1016.7 1507.8 1017.6 1510.5 1012.8 1511.3C1009 1512 997.7 1514.5 994 1515.6C992.6 1516 990.9 1516.8 990.1 1517.4C989.4 1518 986.5 1519.6 983.7 1521C977.7 1524 976.6 1526 980.8 1526C982.4 1526 984 1526.3 984.3 1526.6C985.3 1527.6 980.5 1531 978.2 1531C977 1531 975.8 1531.4 975.5 1532C975.2 1532.5 974.2 1533 973.4 1533C971 1533 963.5 1536.7 960.1 1539.6C956.8 1542.3 953 1548.7 953 1551.5C953 1553.1 952.7 1553.8 949.5 1560C948.5 1561.9 947.3 1564.2 947 1565C944.8 1569.7 942.3 1574 939.5 1577.5C933.8 1584.8 932.1 1588.4 927.4 1604C926.5 1607 923.8 1613.6 921.4 1618.7C919 1623.7 917 1628.3 917 1628.8C917 1629.4 914.8 1634.2 912 1639.6C909.3 1645 907 1650.4 907 1651.6C907 1652.9 906.6 1654.2 906 1654.5C905.4 1654.8 905 1657.5 905 1660.3V1665.6L914.8 1665.7C929.2 1665.9 942.4 1667 943.4 1668.1C944 1668.6 945.6 1669 947.1 1669C948.6 1669 950.3 1669.7 951 1670.5C951.7 1671.3 953.4 1672 954.9 1672C956.4 1672 958 1672.4 958.6 1672.8C959.1 1673.3 962.2 1674.5 965.5 1675.4C968.8 1676.4 974.4 1678.5 977.9 1680.1C981.4 1681.8 985.7 1683.4 987.4 1683.7C989.1 1684 991.2 1684.8 992 1685.4C992.8 1686.1 994.6 1687.1 996 1687.7C997.4 1688.3 1000.2 1689.5 1002.2 1690.4C1004.2 1691.3 1006.2 1692.5 1006.5 1693C1006.8 1693.6 1007.9 1694 1008.9 1694C1009.9 1694 1011.3 1694.7 1012.1 1695.6C1012.8 1696.5 1015.4 1698.1 1017.9 1699.3C1020.4 1700.4 1024.2 1702.4 1026.2 1703.7L1030 1706H1077.7H1125.5L1132.6 1699.3C1136.5 1695.5 1143 1690.3 1146.9 1687.5C1156.4 1681 1157.9 1679.4 1161.7 1671.8C1166 1663.3 1167.5 1655.6 1166.1 1650.5C1165.5 1648.3 1165 1645.2 1165 1643.7C1165 1642.1 1164.4 1639.6 1163.6 1638.2C1162.8 1636.7 1161.2 1633.2 1160 1630.5C1156.8 1622.9 1154.9 1618.7 1153.8 1616.6C1153.3 1615.6 1152.6 1612.3 1152.3 1609.3C1152 1606.4 1151.3 1603.7 1150.9 1603.4C1149.7 1602.7 1149.7 1597.3 1150.9 1596.6C1151.3 1596.3 1152 1593.3 1152.4 1590.1C1152.8 1586.8 1153.5 1583.8 1154 1583.5C1154.6 1583.1 1155 1582.1 1155 1581.1C1155 1580.2 1156.1 1577 1157.5 1574.2C1158.9 1571.3 1160 1568.6 1160 1568C1160 1567.4 1160.4 1566.2 1160.9 1565.2C1162.1 1562.8 1164.7 1556.9 1165.6 1554.5C1166 1553.4 1166.9 1549.3 1167.6 1545.5C1168.2 1541.6 1169.4 1536.7 1170 1534.5C1170.7 1532.3 1171.5 1527.1 1171.7 1523C1172 1518.9 1172.5 1515 1173 1514.5C1173.4 1513.9 1174.1 1510.6 1174.5 1507C1174.9 1503.4 1175.6 1500 1176 1499.5C1177.9 1497.1 1178.8 1470.6 1177.5 1456.7C1177 1452 1177.2 1449.5 1178 1448.5C1179.8 1446.3 1180 1386.6 1178.3 1384.9C1177.5 1384.1 1177 1381 1177 1377.5C1177 1374.1 1176.5 1370.9 1175.9 1370.3C1175.4 1369.8 1174.7 1366.6 1174.4 1363.4C1174.1 1360.2 1173.4 1356.6 1172.9 1355.5C1172.3 1354.3 1172.1 1339.4 1172.3 1318.5C1172.6 1285.2 1173.3 1276.5 1176 1270.5C1176.5 1269.4 1177.1 1266.9 1177.5 1265C1177.8 1263.1 1178.8 1257.7 1179.7 1253C1181.5 1243.2 1182.8 1185.7 1181.2 1183.7C1180.7 1183 1180 1178.9 1179.6 1174.5C1179.2 1170.1 1178.5 1166.1 1178 1165.5C1177.6 1165 1177 1162.5 1176.7 1160C1176.1 1155 1174.2 1147.4 1172.9 1144.8C1172.4 1143.8 1172 1140.1 1172 1136.6C1172 1133 1171.6 1129.8 1171 1129.5C1170.4 1129.1 1170 1123.2 1170 1115.1C1170 1106.5 1169.6 1101 1168.9 1100.3C1168.2 1099.6 1167.5 1088.1 1167 1067.4C1166.2 1033.7 1165.8 1027.9 1163.5 1019C1162.7 1015.9 1161.6 1007.2 1161 999.6C1159.7 982.6 1158.4 976.3 1154 965.5C1151.6 959.4 1150 954.1 1150 951.7C1150 950.2 1149.6 948.2 1149.1 947.2C1146.4 941.8 1145 937.5 1145 934.5C1145 932.7 1144.6 930.8 1144 930.5C1143.5 930.2 1143 927.9 1143 925.5C1143 923.1 1142.6 920.9 1142.1 920.5C1141.6 920.2 1140.8 917.5 1140.5 914.5C1140.1 911.4 1139.4 908.7 1138.9 908.4C1138.4 908.1 1138 906.1 1138 904C1138 901.9 1137.6 899.8 1137 899.5C1136.5 899.2 1136 897.6 1136 896C1136 890.8 1129.3 876.7 1124.3 871.3C1122.2 869.1 1118.5 865 1116 862.1C1113.5 859.2 1109.3 854.6 1106.6 851.7C1103.9 848.8 1100.7 844.9 1099.4 842.8C1098.1 840.8 1096.7 838.9 1096.1 838.6C1095.1 837.9 1084.7 822.9 1081.7 817.7C1080.6 815.9 1078.9 813.5 1077.8 812.4C1076.8 811.2 1074.9 808.4 1073.7 806.2C1072.5 804 1069.6 800.1 1067.3 797.6C1064.9 795.1 1063 792.6 1063 792C1063 790.4 1050.2 775.1 1042.4 767.5C1032.1 757.4 1016.1 745.1 1008.8 741.7C1006.8 740.7 1004.8 739.5 1004.5 739C1004.2 738.4 1003.1 738 1002.1 738C1001.1 738 999.5 737.1 998.6 736.1C997.6 735 995.7 733.9 994.3 733.5C992.9 733.2 989.5 731.4 986.7 729.5C983.8 727.6 980.9 726 980.2 726C979.5 726 977.2 724.9 975.2 723.5C973.2 722.1 970.6 721 969.4 721C968.3 721 967 720.7 966.6 720.3C965.5 719.2 957.3 717.2 950.7 716.4C947.6 716 944.7 715.3 944.4 714.9C944.1 714.4 943 714 941.9 714C940.9 714 939.2 713.6 938.2 713.1C937.3 712.5 933.8 711.3 930.5 710.4C927.2 709.4 922.4 707.2 919.9 705.3C915.8 702.4 914.5 702 909 702C905.6 702 901.6 701.4 900.2 700.6C894 697.3 886.2 694 884.7 694C883.8 694 881.5 692.4 879.6 690.5C877.6 688.6 875.7 687 875.3 687C874.9 687 872.3 685.3 869.5 683.2C862.7 678.1 857.6 675 855.8 675C855 675 853.5 674.1 852.5 673C850.5 670.8 845.4 668 843.5 668C842.8 668 839.6 666.2 836.4 664C833.1 661.8 829.4 660 828 660C826.6 660 824.4 659.1 823 658C821.6 656.9 820 656 819.4 656C818.8 656 817.7 655.3 817 654.5C816.2 653.6 814 653 811.3 653C804 653 796.8 650.4 794.5 647C793.4 645.3 791.6 643.7 790.5 643.4C789.4 643 784.3 639 779.2 634.4C774.1 629.8 769.5 626 768.9 626C768.4 626 766.2 624.3 764.2 622.2C762.1 620.2 758 616.5 755.1 614C747.1 607.3 746.1 606.2 739.1 596.6C732.2 587.1 728 579.2 726.1 572C725.4 569.5 724.2 566.2 723.4 564.7C722.6 563.1 722 561 722 560C722 559 721.6 557.8 721 557.5C720.4 557.2 720 552.2 720 546.1C720 540 719.6 535 718.9 534.3C717.6 533 721.9 523.3 724.9 520.6C726.1 519.5 727 518.1 727 517.3C727 516.5 728.1 514.4 729.5 512.6C730.9 510.8 732 508.9 732 508.5C732 508.1 733.1 506.2 734.5 504.4C735.9 502.6 737 500.3 737 499.2C737 497.5 738.6 493.3 741.1 488.8C741.6 487.8 742 484.6 742 481.6C742 478.6 742.5 475.8 743 475.5C743.6 475.2 744 472 744 468.6C744 464.2 744.5 461.9 745.5 461C746.3 460.3 747 458.1 747 456C747 453.7 747.7 451.7 748.8 450.7C751.1 448.6 755.8 448.6 758.4 450.5C759.5 451.3 761.4 452 762.6 452C763.9 452 765.2 452.4 765.5 453C766.4 454.4 772 454.2 774.8 452.6C777.6 451.1 781 446.2 781 443.7C781 442.8 781.5 442 782 442C782.6 442 783 441.4 783 440.6C783 439.8 784.6 436.1 786.5 432.3C788.4 428.6 790 425 790 424.4C790 423.8 790.7 422.7 791.5 422C792.6 421.1 793 418.5 793 411.5C793 403 792.8 401.9 790.5 399.2C788.4 396.7 788 395.2 788 390.2C788 386.8 788.5 383.8 789 383.5C789.6 383.2 790 382.2 790 381.4C790 380.5 790.7 379.2 791.5 378.4C792.3 377.5 793 375.4 793 373.7C793.1 369.7 795.1 367 798 367C799.9 367 800.1 367.4 799.5 369.2C798 374.3 797.8 376 798.9 376C799.5 376 800 374.9 800 373.6C800 372.3 800.4 371 800.9 370.8C801.4 370.6 802 368 802.4 365C802.7 362 803.4 356.3 803.9 352.4C805 344.6 804.6 333.3 803 328.4C802.1 325.7 801.3 325.1 798.7 324.8C795.8 324.5 795.4 324.1 794.9 320.5C794 313.6 792 310.5 788 310.2C783.3 309.7 778.8 312.3 776.2 316.8C775.1 318.9 773 321.6 771.5 323C769.3 325.1 768.6 325.3 766.9 324.1C765.7 323.4 764.5 323.2 764.2 323.6C763.8 324 764.1 324.5 764.8 324.7C765.5 325 766 326.9 766 329.3C766 334.1 767.7 339.3 770.3 343C772.5 346.2 772.5 347.7 770 349C767.6 350.3 767.3 355.2 769.5 357C770.3 357.7 771 359.8 771 361.7C771 365.9 773.7 374.6 776.1 378.1C777.1 379.5 778.3 383.2 778.8 386.3C779.6 391.4 779.5 392.1 777.3 394.9C775.1 397.7 774.3 398 769.5 398C764.1 398 764.1 398 763.4 401.5C763.1 403.4 762.4 405.3 761.9 405.6C761.4 405.9 761 408.3 761 411C761 413.7 760.6 416.2 760 416.5C759.5 416.8 759 418.6 759 420.4C759 423.9 756.5 427 753.7 427C752.4 427 752 426.1 752 422.7C752 420.3 752.4 418 752.9 417.5C753.9 416.5 754.3 410.8 755.8 384.5C756.2 376.8 756.9 369.9 757.4 369.1C758.5 367.4 758.5 356.6 757.3 354.8C756.9 354.1 756.2 349.4 755.8 344.5C755 334.3 753.7 325.9 752.2 321.5C750.2 315.6 749 311.3 749 309.8C749 308.9 748.7 308 748.3 307.8C745.8 306.8 744 300.3 744 292.9C744 288.5 743.6 284.2 743.1 283.2C742.6 282.3 741.8 280.5 741.3 279.2C740.9 277.9 740.1 277.2 739.7 277.6ZM620 451C620 452.2 620.7 454.2 621.6 455.5C623.8 458.9 622.8 460.8 618.3 461.5C616.2 461.9 613.6 462.5 612.5 463C606.9 465.3 603.7 465.9 594.8 466.5C581.9 467.4 579 466.7 579 463C579 458.9 580.6 458.4 584.5 461.4C588.3 464.3 591.7 464.7 594.6 462.5C595.6 461.7 597.3 461 598.3 461C599.3 461 600.4 460 600.9 458.7C602.6 454.4 604.4 453.7 607 456.5C608.3 457.9 609.9 459 610.6 459C612.1 459 616.6 453.8 617.5 451C618.3 448.4 620 448.4 620 451ZM598.1 481C599 481 600 480.3 600.4 479.5C600.7 478.7 601.7 478 602.6 478C604.6 478 608 480.8 608 482.3C608 482.9 608.7 484.2 609.6 485.2C612 487.8 609.8 490 605 490C602.9 490 598.4 490.7 595 491.6C591.6 492.5 586.9 493.1 584.7 492.9C577.1 492.6 572 493 572 494C572 494.5 574.4 495 577.4 495C580.9 495 583.2 495.5 584 496.5C584.7 497.3 586.9 498 589 498C591.1 498 593.3 497.3 594 496.5C594.7 495.7 596.7 495 598.5 495C600.3 495 602.3 495.7 603 496.5C604.6 498.4 607.1 498.4 609.6 496.5C611.9 494.8 620 494.5 620 496.1C620 496.8 618.4 498.6 616.5 500.3C614.6 501.9 613 504 613 505C613 506 612.3 507 611.5 507.4C609.6 508.1 609.6 510.4 611.5 512C613.6 513.7 611.8 515 607.3 515C605.6 515 603.8 515.4 603.5 516C602.7 517.3 567.3 517.3 566.5 516C566.2 515.5 564.6 515.3 563 515.7C560.3 516.2 560 516 560 513.8C560 512.5 558.9 510.3 557.5 509C553.5 505.3 554 500 558.7 495.5C561.4 492.9 562.4 491.1 562.2 489.4C561.8 486.4 565.7 485.2 570.8 486.9C572.9 487.6 577.7 488 581.5 487.8C588.4 487.5 588.5 487.4 588.8 484.5C589 482.8 589.9 480.7 590.7 479.8C592.1 478.3 592.5 478.2 594.3 479.5C595.5 480.3 597.2 481 598.1 481ZM746.3 614.4C747.5 615.7 749.3 619.7 750.4 623.1C751.4 626.6 752.6 630.3 753.1 631.2C754.2 633.3 754.3 661.3 753.3 662.4C752.6 663.1 750.7 671.7 749.4 680C749.1 681.9 748 685.3 747 687.5C746 689.8 744.9 693.8 744.5 696.5C744.2 699.3 743.5 702.4 743 703.5C739.9 710.4 739 713.8 739 718.1C739 720.7 738.6 723.2 738 723.5C737.5 723.8 737 725.2 737 726.4C737 727.7 736.3 730.1 735.5 731.6C734.7 733.2 734 735.3 734 736.2C734 737.1 733.6 738.2 733 738.5C732.5 738.8 732 742.2 732 746.1C732 749.9 731.6 753 731.1 753C730.6 753 730 756.7 729.8 761.2L729.3 769.4L723.9 774.3C720.9 777 717.6 779.6 716.5 780.1C715.4 780.6 712.7 782.4 710.5 784.1C708.3 785.7 704.9 788.1 703 789.4C701.1 790.8 697.7 793.4 695.5 795.4C693.3 797.4 691.1 799 690.7 799C690.3 799 687.2 801.7 683.8 805C680.4 808.2 677.3 810.7 676.8 810.4C675.6 809.6 675.9 805.8 677.5 803C679.6 799.3 679.3 797.2 676.3 794.4C674 792.2 673.8 791.7 675 789.6C676 787.6 675.9 786.6 674.4 783.1C673.2 780.3 672.3 779.3 671.6 780C670 781.6 669 781.2 669 778.7C669 777.4 670.6 774.6 672.5 772.4C674.4 770.3 676 768.1 676 767.6C676 765.9 679.3 763 681.2 763C682.2 763 684.2 761.9 685.4 760.6C686.7 759.4 688.5 758 689.3 757.7C690.9 757.1 693 751.3 693 747.5C693 746.4 694.1 743.5 695.5 741.1C696.9 738.8 698 736.4 698 735.9C698 735.3 699.1 733.9 700.5 732.6C701.9 731.3 703 729.2 703 727.7C703 726.3 703.5 724.8 704 724.5C704.6 724.2 705 722.7 705 721.2C705 719.7 706.1 717.3 707.5 715.8C708.9 714.3 710 712.4 710 711.7C710 710.9 710.7 709.7 711.5 709C712.3 708.3 713 706.7 713 705.5C713 703.1 720.1 688 723.2 684.1C724.2 682.8 725 680.9 725 679.9C725 678.8 725.5 678 726 678C726.6 678 727 677.4 727 676.7C727 676.1 728.2 673.2 729.5 670.5C730.9 667.7 732 665 732 664.5C732 663.9 733.8 659.9 736 655.5C738.2 651.1 740 646.7 740 645.8C740 644.9 740.5 643.8 741 643.5C741.6 643.1 742 636.7 742 627.4C742 617.3 742.4 612 743 612C743.6 612 745.1 613.1 746.3 614.4ZM574.3 705.6C579.4 709.6 580.5 713.1 577.1 715C574.6 716.3 566.3 716.3 565.5 715C565.2 714.4 563.9 714 562.6 714C561 714 559.9 712.9 558.6 709.9C556.7 705.7 556.7 705.7 558.9 704C560.2 703.1 563.1 702.3 565.4 702.1C568.9 702 570.4 702.5 574.3 705.6ZM466.7 754.7C469.2 761.6 476.9 771.1 492.6 786.7L509.9 804H515C517.7 804 520 804.3 520 804.7C520 806.4 511.9 813 509.9 813C508.8 813 506.6 812.2 505.2 811.2C503.7 810.2 501.8 809 501 808.7C500.2 808.3 498.8 807.6 498 807.1C497.2 806.6 495 805.5 493.2 804.8C491.5 804 487.4 800.8 484.2 797.8C476.6 790.5 474.6 790.1 474.2 795.7C474 798.1 474.5 801.4 475.3 803.2C476.1 805 477 807.4 477.3 808.5C478 811.2 481.8 821.9 483.2 825C483.8 826.4 484.7 828.6 485.2 830C486.7 833.7 488.4 837.6 492.4 846.2C494.4 850.4 496 855 496 856.4C496 857.7 496.4 859.1 496.9 859.5C498 860.1 501 865.8 501 867.2C501 867.6 502 869.7 503.3 871.8C504.6 873.8 506.2 877.5 506.9 880C508.5 885.5 508.8 886.1 509.9 888C511.7 891.1 515 898.6 515.6 901.2C515.9 902.8 516.6 904 517.1 904C517.6 904 518 905.1 518 906.5C518 907.9 519.1 910.8 520.5 913C521.9 915.2 523 917.6 523 918.4C523 919.2 523.6 921.1 524.4 922.7C528.7 931.4 530 934.3 530 935.3C530 936 531.1 938.7 532.5 941.4C533.9 944.1 535 946.9 535 947.5C535 948.2 535.7 949.3 536.5 950C537.3 950.7 538 952.1 538 953.1C538 954.2 538.5 955.9 539 957C539.6 958.1 540.5 959.9 541 961C541.6 962.1 542 963.5 542 964.2C542 964.8 542.6 966.1 543.4 966.9C544.2 967.8 545.5 970.6 546.4 973.2C547.3 975.8 548.4 978.8 548.9 979.7C549.4 980.7 551.1 984.2 552.5 987.5C554 990.8 556.9 997.1 559 1001.5C561.1 1005.9 563.5 1011.3 564.2 1013.5C564.9 1015.7 566.1 1018.1 566.7 1018.8C567.4 1019.5 568.2 1021.3 568.6 1022.8C568.9 1024.3 570.2 1027.7 571.5 1030.5C572.8 1033.2 574.7 1037.6 575.7 1040.2C576.7 1042.9 577.8 1045 578.3 1045C578.7 1045 579 1046.3 579 1047.9C579 1049.6 579.5 1051.2 580 1051.5C580.6 1051.8 581 1052.8 581 1053.7C581 1055.3 582.2 1057.9 591.1 1076.6C593.8 1082.1 596 1087.9 596 1089.4C596 1092 596.2 1092.6 599.3 1098.8C600.2 1100.7 601 1102.8 601 1103.6C601 1104.4 601.4 1105.8 601.9 1106.8C605.5 1113.7 608 1119.4 608 1120.6C608 1121.4 608.5 1122 609 1122C609.6 1122 610 1122.8 610 1123.7C610 1124.7 611.1 1127.7 612.5 1130.4C613.9 1133.1 615 1136 615 1136.8C615 1137.5 615.6 1139.4 616.4 1140.8C617.1 1142.3 618.2 1144.6 618.8 1146C619.3 1147.4 620.9 1150.9 622.4 1153.8C623.8 1156.8 625 1160.2 625 1161.5C625 1162.8 625.5 1164.2 626 1164.5C626.6 1164.8 627 1166.2 627 1167.5C627 1168.8 627.5 1170.2 628 1170.5C629.1 1171.2 632 1177.4 634.1 1183.5C634.9 1185.7 635.7 1187.7 636 1188C637.5 1189.5 640 1195.1 640 1197.2C640 1198.4 641.6 1202.6 643.5 1206.4C645.4 1210.1 647 1213.7 647 1214.2C647 1214.8 648.1 1217.4 649.5 1220.2C650.9 1222.9 652 1225.6 652 1226.1C652 1226.6 652.9 1228.9 653.9 1231.3C655 1233.6 656.2 1236.6 656.5 1238C657.6 1241.9 660 1244.2 661.6 1242.9C662.6 1242 663.9 1242.2 666.5 1243.4C673.1 1246.6 674.7 1243.8 675.6 1227.5C675.9 1223.1 676.5 1218.6 677 1217.5C678.1 1215.1 680.1 1200.5 680.7 1189.5C681 1185.1 681.5 1181 682 1180.5C682.5 1179.9 683 1176.3 683.1 1172.5C683.2 1168.6 684 1164.3 684.7 1162.8C685.4 1161.3 686 1157.5 686.1 1154.3C686.1 1148.5 687.5 1138.6 690.5 1121.5C691.3 1116.5 692.5 1108.7 693 1104C693.6 1099.3 694.4 1094.4 694.9 1093C695.5 1091.6 696.1 1087.8 696.4 1084.5C696.7 1081.2 697.4 1076 698 1073C698.5 1070 699.5 1063.6 700.2 1058.8C700.9 1054.1 701.8 1049.8 702.3 1049.4C702.7 1049 703 1046.3 703 1043.4C703 1040.5 703.5 1037.8 704 1037.5C704.6 1037.2 705 1035.2 705 1033.2C705.1 1031.2 705.7 1028.4 706.5 1027C707.3 1025.6 707.9 1022.2 708 1019.3C708 1016.5 708.5 1013.8 709 1013.5C709.6 1013.2 710 1010.5 710 1007.6C710 1004.1 710.5 1001.8 711.5 1001C712.5 1000.2 713 997.9 713 994.4C713 991.5 713.5 988.8 714 988.5C714.6 988.2 715 985.5 715 982.6C715 979.8 715.4 977 715.9 976.4C716.4 975.9 716.9 973.5 717.1 971C717.2 968.5 717.9 965.5 718.7 964.3C719.4 963.1 720 959.4 720 956.1C720 952.8 720.5 949.8 721 949.5C721.6 949.2 722 947.1 722 944.9C722 942.7 722.4 940.1 722.9 939.2C723.4 938.2 724.8 930.5 726 922C727.2 913.5 728.4 906.2 728.6 905.8C729.5 904.3 732 885.5 732 880C732 876.9 732.5 873.9 733 873.4C733.6 872.8 734.3 869.7 734.6 866.5C734.9 863.3 735.5 859.8 736.1 858.9C736.6 857.9 737 854.7 737 851.6C737 848.6 737.4 845.9 737.9 845.6C738.3 845.3 739 842.3 739.4 839.1C739.8 835.8 740.5 832.8 741 832.5C741.6 832.1 742 829.7 742 827C742 824.3 742.5 821.8 743 821.5C743.6 821.2 744 818.9 744 816.6C744 813.9 744.6 811.8 745.5 811C746.4 810.3 747 808.1 747 805.9C747 803.8 747.5 801.8 748 801.5C748.6 801.2 749 798.9 749 796.5C749 794.1 749.5 791.8 750 791.5C750.6 791.2 751 789.4 751 787.5C751 785 750.5 784 749 783.5C747.2 782.9 747 782 747 773C747 767.5 747.4 762.8 748 762.5C748.6 762.2 749 761 749 759.9C749 758.3 749.7 758 753.3 758C756.7 758 758.3 758.7 761.5 761.5C763.7 763.4 765.9 765 766.3 765C766.7 765 768.1 765.9 769.3 767.1C770.5 768.2 773.1 769.8 775 770.6C776.9 771.5 779.9 772.7 781.5 773.4C788.2 776.3 807.1 782 810 782C811.6 782 813.8 782.4 814.8 782.9C815.7 783.4 819.2 784.2 822.5 784.7L828.5 785.5L828.8 789.6C829.1 793.4 828.9 793.7 825.3 795.5C823.2 796.5 820.7 797.7 819.6 798.2C818.4 798.8 817.4 798.8 816.7 798.1C816.1 797.5 812.8 797 809.3 797C803.3 797 803 797.1 802.4 799.7C802.1 801.3 801.4 803.5 800.9 804.8C800.4 806.1 800 808.8 800 811C800 813.1 799.6 815.2 799 815.5C798.5 815.8 798 818.1 798 820.6C798 823.1 797.3 826.7 796.5 828.7C795.7 830.6 795 833.5 795 835.1C795 836.6 794.6 838.2 794 838.5C793.5 838.8 793 841.1 793 843.6C793 846.1 792.4 849.1 791.6 850.3C790.9 851.5 790.2 854.7 790.1 857.4C789.9 860.1 789.4 863.4 788.9 864.7C788.4 866 788 868.6 788 870.4C788 872.1 787.6 874 787.1 874.6C786.6 875.1 785 883.1 783.5 892.5C782 901.8 780.3 910.6 779.8 912C779.2 913.4 778.4 917.4 777.9 921C777.5 924.6 776.4 931.1 775.5 935.5C772.9 948.5 771.9 954.2 771.3 959.9C771 962.9 770.2 966.3 769.6 967.4C768.9 968.6 768.2 971.5 768.1 974C767.9 976.5 767.4 978.9 766.9 979.4C766.4 980 766 982.8 766 985.7C766 988.6 765.6 991 765.1 991C764.7 991 764 993.7 763.7 997C763.3 1000.4 762.6 1003.9 762 1005C761.5 1006 761 1009.3 761 1012.4C761 1015.4 760.6 1018.2 760 1018.5C759.5 1018.8 759 1021.5 759 1024.3C759 1027.3 758.3 1030.3 757.5 1031.4C756.7 1032.5 756 1035.3 756 1037.6C756 1040 755.6 1042.2 755 1042.5C754.5 1042.8 754 1043.9 754 1045C754 1046 753.3 1047 752.5 1047.4C751.3 1047.8 751 1050.2 751 1059.6C751 1066.1 750.6 1074.1 750.1 1077.4C749.5 1080.8 748.6 1087.1 747.9 1091.5C747.3 1095.9 746.3 1100 745.8 1100.6C745.3 1101.3 744.5 1106.2 744 1111.6C743.5 1117.1 742.3 1126 741.4 1131.5C740.5 1137 739.6 1145.1 739.3 1149.5C739.1 1153.9 738.4 1157.9 737.9 1158.5C737.4 1159 737 1162.8 737 1167C737 1171.2 736.5 1175.1 735.9 1175.7C735.4 1176.2 734.6 1179.6 734.3 1183.1C734 1186.6 733.4 1189.9 732.9 1190.5C732.4 1191 732 1194.4 732 1198.1C732 1201.8 731.6 1205 731.1 1205.2C730.6 1205.3 729.7 1210.2 729 1216C727.3 1232.8 726.9 1235.4 725.9 1236.5C725.4 1237 725 1240.7 725 1244.8C725 1248.8 724.4 1253.1 723.8 1254.3C723.1 1255.5 722.2 1260.3 721.8 1265C721 1275.5 720 1281.2 718.9 1282.5C718.5 1283.1 717.8 1285.6 717.4 1288C717 1290.5 716.4 1292.9 716.1 1293.5C715.7 1294 715.3 1296.1 715.1 1298C714.9 1301.6 714.2 1304.1 711.6 1312.5C710.7 1315.2 710 1318.2 710 1319.1C710 1321.1 705.4 1330.6 704 1331.5C703.5 1331.8 703 1333.2 703 1334.4C703 1335.7 702.3 1337.3 701.5 1338C700.7 1338.7 700 1340.1 700 1341.1C700 1342.1 699.6 1343.2 699 1343.5C698.5 1343.8 698 1344.8 698 1345.7C698 1349.5 691.8 1352.9 690.7 1349.7C690.4 1348.7 689.8 1348.7 688.1 1349.7C683.8 1352.3 679.1 1350.3 679 1345.9C679 1345 678.3 1344 677.5 1343.6C676.7 1343.3 676 1342.4 676 1341.7C676 1340.3 674.6 1337.4 671.1 1331.5C670.1 1329.8 668 1327.8 666.4 1327C662.8 1325.1 662 1324.1 662 1321C661.9 1318.3 657.9 1310.7 651.5 1301.4C647.1 1294.9 644.1 1289.7 640.9 1283.1C639.7 1280.6 638.1 1278 637.3 1277.2C636.5 1276.4 635.4 1274.7 634.9 1273.6C634.4 1272.4 632.8 1269.7 631.5 1267.5C630.1 1265.3 628.5 1262.3 627.9 1260.7C627.3 1259.2 626.4 1258 625.9 1258C625.4 1258 625 1257.3 625 1256.4C625 1255.5 624.2 1253.6 623.1 1252.2C622.1 1250.7 620.2 1247.2 619 1244.5C617.8 1241.7 615.9 1238.3 614.9 1236.8C613.8 1235.4 613 1233.3 613 1232.2C613 1231.1 612.3 1229.7 611.5 1229C610.7 1228.3 610 1227.2 610 1226.6C610 1226 609.1 1224.4 608 1223C606.9 1221.6 606 1219.6 606 1218.5C606 1217.4 604.9 1215.3 603.5 1213.8C602.1 1212.3 601 1210.6 601 1210C601 1209.4 600 1207.3 598.7 1205.2C597.5 1203.2 595.6 1199.7 594.5 1197.5C593.4 1195.3 592.2 1193.3 591.8 1193.2C591.3 1193 591 1192.2 591 1191.4C591 1190.6 590.6 1190 590 1190C589.5 1190 589 1189.1 589 1188.1C589 1187 588.6 1185.8 588 1185.5C587.5 1185.2 586.1 1183 585 1180.7C582.8 1176.1 579.3 1169.4 577.9 1167C576.8 1165.2 574.8 1160.9 572.6 1155.8C571.7 1153.8 570.5 1151.8 570 1151.5C569.4 1151.2 569 1150 569 1148.9C569 1147.9 568.6 1147 568 1147C567.5 1147 567 1146.2 567 1145.1C567 1144.1 566.3 1142.7 565.5 1142C564.7 1141.3 564 1140.1 564 1139.4C564 1138.7 563.2 1136.6 562.2 1134.8C561.2 1133 560 1130.2 559.6 1128.7C559.2 1127.1 558 1124.9 557 1123.7C555.9 1122.6 555 1120.9 555 1120.1C555 1119.2 553.9 1116.3 552.6 1113.5C551.3 1110.8 549.5 1106.8 548.6 1104.8C547.7 1102.8 546.5 1100.8 546 1100.5C545.4 1100.2 545 1099.3 545 1098.5C545 1097.3 537 1079.5 533.9 1073.8C533.4 1072.8 533 1071.3 533 1070.5C533 1069.6 531.9 1066.9 530.5 1064.4C529.1 1061.9 528 1059.3 528 1058.5C528 1057.7 527.6 1057 527.1 1057C526.6 1057 525.9 1055.8 525.6 1054.2C525.2 1052.7 524.1 1049.7 523 1047.5C522 1045.3 520.9 1042.8 520.6 1042C520.3 1041.2 519.6 1039.8 519.1 1039C518.6 1038.2 517.8 1036.4 517.2 1035C516.6 1033.6 515 1030 513.6 1027.1C512.2 1024.1 511 1020.9 511 1020.1C511 1019.2 509.9 1016.5 508.5 1014.1C507.1 1011.8 506 1009.2 506 1008.4C506 1007.1 504.2 1002.8 498.5 990.5C497.2 987.7 495.6 983.7 494.9 981.5C494.2 979.3 493 976.8 492.3 975.9C491.6 975.1 491 973.6 491 972.7C491 971.7 490.6 970.2 490.1 969.2C489.5 968.3 488.3 965.6 487.4 963.2C486.4 960.9 485.3 959 485 959C484.7 959 483.8 956.9 483.1 954.2C481.6 948.8 481.4 948.1 480.1 946C478.5 943.5 474 933 474 932C474 931.4 473.6 930.2 473.1 929.2C469.5 922.3 467 916.6 467 915.4C467 914.6 466.6 913.2 466.1 912.2C465 909.9 460.7 900.4 458.6 895.7C457.7 893.6 457 891.3 457 890.5C457 889.7 456.6 889 456 889C455.5 889 455 888.1 455 887.1C455 886 454.6 884.8 454 884.5C453.5 884.2 453 883.1 453 882.1C453 881.1 452.3 879.7 451.5 879C450.7 878.3 450 877 450 876C450 875 448.9 872 447.6 869.3C445.2 864.4 440.5 854.1 439 850.5C438 848 433.6 838.2 430.5 831.5C429.2 828.7 427.6 824.7 426.9 822.5C426.3 820.3 425.4 817.8 424.9 817C424.4 816.2 423.3 813.9 422.4 812C421.6 810.1 420.4 807.8 419.9 807C419.4 806.2 418.6 804.6 418.1 803.5C417.6 802.3 416.5 800.8 415.6 800.1C414.7 799.4 414 798.2 414 797.5C414 795.3 410.3 792 407.8 792C406.4 792 404.7 791.4 404.1 790.6C403.4 789.8 401.5 788.8 399.9 788.5C394.4 787.3 395.3 782 401 782C402.5 782 405.3 780.9 407.2 779.7C409.1 778.4 412 777 413.6 776.6C416.5 775.9 433.3 768.2 438 765.5C439.4 764.7 442.5 763 445 761.8C447.5 760.5 449.7 759.2 449.8 758.7C450 758.3 450.8 758 451.5 758C453.1 758 459.4 754.8 459.8 753.7C460.5 752.2 466.1 753 466.7 754.7ZM682.3 862.2C681.7 862.9 680.5 865.6 679.6 868.1C678.6 870.7 676.5 873.7 674.9 874.9C673.3 876.1 672 877.9 672 879C672 881.2 668.4 884 665.5 884C662.7 884.1 659.2 887.1 658.8 889.8C658.6 891 658.1 891.9 657.5 891.8C657 891.6 656.6 890.5 656.8 889.2C657 887.4 656.6 887 654.5 887C652.4 887 652 886.6 652 883.8C652 880.7 654.3 877 656.3 877C656.9 877 659.9 874.9 662.9 872.2C666 869.6 669.9 866.8 671.5 866C673.2 865.2 675.2 864.1 676 863.4C677.3 862.3 679.8 861.5 682.4 861.1C682.9 861.1 682.8 861.6 682.3 862.2ZM1072.9 940.5C1072.4 944.3 1070.4 952.1 1068.5 957.8C1066.6 963.5 1065 968.7 1065 969.3C1065 969.9 1064.2 971.3 1063.2 972.4C1062.2 973.6 1060.5 976.7 1059.5 979.5C1058.5 982.2 1057.2 985.2 1056.5 986C1055.1 987.7 1052.7 991.8 1048.6 1000C1047 1003 1045.4 1006.2 1045 1007C1039.4 1017.5 1031 1035.3 1031 1036.8C1031 1037.5 1029.9 1039.8 1028.5 1042C1027.1 1044.2 1026 1046.8 1026 1047.9C1026 1049.9 1012.5 1077.1 1009.1 1081.9C1007.9 1083.5 1007 1085.8 1007 1087C1007 1088.2 1006 1090.6 1004.7 1092.3C1003.5 1094.1 1002 1096.4 1001.4 1097.5C1000.8 1098.6 999.5 1099.6 998.6 1099.8C997.4 1100.1 997 1099.4 997 1097.1C997 1095.5 997.4 1093.9 997.9 1093.6C998.3 1093.3 999 1090.6 999.4 1087.7C999.7 1084.7 1001.3 1079.8 1002.9 1076.9C1004.5 1073.9 1007.7 1067.7 1010 1063C1012.3 1058.3 1014.7 1053.6 1015.3 1052.5C1019.1 1045.5 1023.2 1036.5 1023.7 1033.9C1024 1032.3 1024.7 1030.7 1025.1 1030.4C1025.6 1030.1 1026 1028.8 1026 1027.6C1026 1026.3 1026.7 1023.9 1027.5 1022.4C1028.3 1020.8 1029 1018.7 1029 1017.8C1029 1016.9 1029.5 1015.8 1030 1015.5C1030.6 1015.2 1031 1013.2 1031 1011.1C1031 1007.2 1033.8 1003 1036.5 1003C1038 1003 1043 997.5 1043 995.8C1043 995.2 1043.6 993.9 1044.4 993.1C1046.7 990.5 1052.6 979.6 1053.4 976.4C1053.8 974.8 1054.7 972.8 1055.5 972C1056.2 971.2 1058.2 967 1060 962.8C1061.7 958.5 1063.6 954.8 1064.1 954.4C1064.6 954.1 1065 953.1 1065 952.1C1065 951.1 1065.7 948.9 1066.5 947.4C1067.3 945.8 1068 943.7 1068 942.7C1068 940.3 1072.7 932.4 1073.6 933.3C1073.8 933.4 1073.5 936.7 1072.9 940.5ZM1052.2 949.3C1051.7 950 1050.5 954.1 1049.5 958.5C1048.1 965.4 1045.4 972.6 1041.9 979.2C1041.4 980.2 1041 982.3 1041 984C1041 987.7 1035.3 999.3 1034 998.5C1032.5 997.6 1032.8 990.4 1034.5 986.3C1035.3 984.4 1036 981 1036 978.9C1036 976.8 1036.5 974.8 1037 974.5C1037.6 974.2 1038 971 1038 967.6C1038 963.2 1038.5 960.9 1039.5 960C1040.3 959.3 1041 957.7 1041 956.4C1041 954.3 1041.4 954 1044.2 954.2C1046.9 954.5 1047.4 954.1 1048.1 951.6C1049 948.5 1050.8 946.8 1052.3 947.7C1052.7 947.9 1052.7 948.7 1052.2 949.3ZM177.3 1003.7C178.7 1005.3 181 1008.5 182.3 1011C187.7 1021 188.6 1022.5 190.3 1024.4C191.2 1025.5 192 1026.7 192 1027.1C192 1027.5 193 1029.1 194.3 1030.7C198 1035.2 200.4 1044.3 199.4 1050.4C198.6 1056 198.6 1064.2 199.5 1076.4C200.3 1086.2 199.7 1089 197 1088.3C195.9 1088 195 1087.2 195 1086.4C195 1085.7 194 1083.4 192.8 1081.3C187.7 1072.8 186.8 1066.9 190.2 1064.5C192.1 1063.2 192.3 1062.7 191.2 1061C190.6 1059.9 190 1056.3 190 1053.1C190 1048.3 189.5 1046.3 187.5 1043.4C186.1 1041.4 185 1039.1 185 1038.2C185 1037.4 182.9 1033.8 180.3 1030.1C174.1 1021.5 173 1019.4 173 1015.7C173 1014 171.9 1011.2 170.5 1009.4C167.5 1005.5 167.5 1005.2 169.7 1002.8C172 1000.3 174.2 1000.5 177.3 1003.7ZM984.5 1014C986.8 1016.5 986.9 1016.6 987.1 1047C987.2 1064.2 987.8 1078.5 988.3 1079.7C989 1081.2 988.9 1082.4 988.2 1083.3C987.3 1084.3 987.4 1085.5 988.2 1087.8C989.2 1090.4 989.2 1091.5 988.2 1093C987.5 1094.2 987 1098.6 987 1103.9C987 1108.9 986.6 1113.2 986 1113.5C985.5 1113.8 985 1116.7 985 1119.9C985 1123.4 984.5 1126.2 983.8 1126.8C982.6 1127.7 982.4 1130.3 982.9 1137.8C983 1140.6 985 1139.8 985 1136.9C985 1135.9 985.5 1135 986 1135C986.6 1135 987 1134.1 987 1132.9C987 1131.8 987.8 1129.5 988.7 1128C989.9 1125.8 991.1 1125.2 993.3 1125.2C994.9 1125.3 996.5 1124.8 996.9 1124.2C997.3 1123.6 1000.6 1120 1004.2 1116.2C1009.4 1110.9 1011 1108.5 1011.5 1105.4C1012.4 1100.1 1013.9 1097.1 1017.5 1093.5C1020.7 1090.3 1023.1 1085.9 1025 1079.8C1026 1076.3 1030 1072 1032.1 1072C1033.3 1072 1033.2 1076.7 1032 1077.5C1031.5 1077.8 1031 1080.1 1031 1082.5C1031 1084.9 1030.6 1087.2 1030 1087.5C1029.5 1087.8 1029 1089.5 1029 1091.1C1029 1092.8 1027.9 1095.6 1026.5 1097.4C1023.9 1100.8 1023.2 1104.4 1025 1105.5C1026.8 1106.6 1026.1 1109.6 1023.5 1112C1021.9 1113.5 1021 1115.4 1021 1117.5C1021 1119.2 1019.9 1123 1018.5 1125.8C1017.1 1128.7 1016 1131.6 1016 1132.4C1016 1133.2 1015.6 1134.2 1015 1134.5C1014.5 1134.8 1014 1136.4 1014 1138C1014 1139.6 1013.6 1141.2 1013 1141.5C1012.5 1141.8 1012 1143 1012 1144.1C1012 1145.2 1011.3 1146.3 1010.5 1146.6C1009.7 1147 1009 1148.3 1009 1149.6C1009 1150.9 1008.6 1152 1008 1152C1007.5 1152 1007 1152.9 1007 1153.9C1007 1155 1006.6 1156.2 1006 1156.5C1005.5 1156.8 1005 1157.8 1005 1158.7C1005 1160.8 1002.1 1166.9 999.1 1170.8C996.5 1174.3 996.3 1176.4 997 1190.8C997.2 1194.2 996.9 1198 996.3 1199.3C995.7 1200.5 994.5 1204.2 993.5 1207.5C992.6 1210.8 991.4 1214.3 990.9 1215.2C990.4 1216.2 990 1217.6 990 1218.4C990 1219.1 989.3 1221.1 988.5 1222.6C987.7 1224.2 987 1226.3 987 1227.2C987 1228.1 986.6 1229.2 986 1229.5C985.5 1229.8 985 1231.2 985 1232.5C985 1233.9 984.1 1236.4 983.1 1238.1L981.2 1241.2L979.6 1238.2C978.3 1235.7 978 1231.1 977.9 1212.8C977.8 1185.3 976.5 1157.6 974.9 1149C973.7 1142.1 973.4 1103.3 974.5 1085.2C975.1 1075.3 975.1 1074.9 972.6 1071.9C970.3 1069.2 970 1066 972 1066C972.9 1066 973.9 1059.6 974.6 1048.6C974.9 1044.2 975.8 1039.7 976.6 1038.6C977.3 1037.4 978 1034.1 978.1 1031.2C978.2 1028.3 978.7 1025.7 979.2 1025.4C979.6 1025.1 980 1021.9 980 1018.2C980 1014.5 980.3 1010.4 980.7 1009L981.5 1006.5L981.8 1009C982 1010.4 983.2 1012.6 984.5 1014ZM898.4 1068.9C899.5 1070.1 900.8 1071 901.4 1071C902 1071.1 903.6 1072 904.9 1073.1L907.3 1075.1L905.3 1077.8C903.3 1080.4 903 1080.5 892.6 1080.6L881.9 1080.7L879.8 1077.8C877.3 1074.2 877.7 1073.6 887 1068.7C893.8 1065.1 895 1065.1 898.4 1068.9ZM901.8 1091.4C902.1 1098.8 901.9 1099.5 899.4 1102.1C895.5 1106.2 892.2 1105.9 887.1 1101C883.1 1097.1 883 1096.8 883 1090.7C883 1087.2 883.3 1084 883.7 1083.6C884.1 1083.2 888.3 1083.1 893 1083.2L901.5 1083.5L901.8 1091.4ZM196.1 1100.1C196.5 1100.9 197.7 1104.2 198.6 1107.5C199.6 1110.8 200.6 1113.9 201 1114.5C202.1 1116 202.9 1131.5 202 1132.9C201.5 1133.8 200.3 1133.6 197.4 1132C192.5 1129.2 192 1128.5 192 1123.4C192 1118.6 190.5 1115.3 186.1 1110.5C184.4 1108.6 183 1106.6 183 1106.1C183 1105.6 184.6 1105 186.6 1104.8C190.2 1104.5 191.2 1103.6 192.4 1099.7C193.1 1097.6 194.9 1097.8 196.1 1100.1ZM205.2 1164.7C206.4 1165.8 207 1167.7 207 1170.6C207 1173.4 207.9 1176.6 209.5 1179.4C210.9 1181.9 212 1185 212 1186.4C212 1187.8 212.5 1189.2 213 1189.5C213.6 1189.8 214 1192 214 1194.3C214 1196.6 214.7 1199.4 215.5 1200.4C216.3 1201.5 217 1203.3 217 1204.5C217 1205.7 217.4 1207 217.9 1207.6C219.1 1208.9 219.8 1224 218.6 1224C216.8 1224 214 1220.7 214 1218.6C214 1216.4 209 1205.7 207.8 1205.2C207.3 1205 207 1203.5 207 1201.9C207 1199.4 205.3 1195 201.3 1187.5C199.6 1184.2 198.3 1179.5 198.8 1178.2C199 1177.5 200.4 1176.4 201.8 1175.9L204.3 1174.9L200.4 1170.7C198.3 1168.4 196.1 1166.3 195.6 1165.9C195.1 1165.5 195.1 1164.7 195.4 1164.1C196.5 1162.4 203.1 1162.8 205.2 1164.7ZM223.7 1238.3C224 1239.8 224.7 1241.3 225.1 1241.6C225.6 1241.9 226 1244 226 1246.3C226 1248.7 226.6 1251.5 227.4 1252.6C228.2 1253.7 229.7 1257.3 230.8 1260.6C231.9 1263.8 233.7 1268.8 235 1271.5C237.8 1277.9 245.8 1295 247.1 1297.2C247.6 1298.2 248 1299.8 248 1300.8C248 1301.8 248.7 1303.5 249.5 1304.6C250.3 1305.6 251 1307.6 251 1308.8C251 1310.1 251.8 1312.4 252.9 1313.8C257.5 1320.4 260 1326.9 260 1332.4C260 1335.4 259.6 1338.2 259 1338.5C258.5 1338.8 258 1340.1 258 1341.3C258 1343.6 254.9 1352.4 253.7 1353.6C253.3 1354 253 1355.6 253 1357.1C253 1358.6 252.6 1360.2 252 1360.5C250.7 1361.3 250.7 1381.3 251.9 1382.5C252.5 1383.1 253.1 1390 253.3 1398C253.8 1417.1 256.5 1429.8 260.3 1431.3C262 1431.9 271.1 1427.8 273 1425.5C275.3 1422.7 281.7 1419 284.3 1419C287.5 1419 292.2 1423.6 294.9 1429.5C296.1 1432.3 297.6 1435.3 298.1 1436.2C298.6 1437.2 299 1438.8 299 1439.8C299 1441.9 303.3 1450.6 305.7 1453.2C306.6 1454.2 308 1455 308.9 1455C311.2 1455 315.5 1446.4 315.1 1442.4C314.9 1440 320.1 1434 322.4 1434C324.4 1434 324.5 1436.4 322.5 1438C321.7 1438.7 321 1440.8 321 1442.6C321 1444.4 320 1448.3 318.7 1451.2C317.4 1454.1 315.8 1458.5 315 1461C314.3 1463.5 313.1 1466.9 312.4 1468.7C311.6 1470.4 311 1472.3 311 1472.9C311 1473.5 310.6 1474.8 310.1 1475.8C309.6 1476.7 308.7 1478.8 308 1480.5C305.7 1486.3 301.7 1493.5 300.3 1494.3C299.6 1494.7 299 1495.8 299 1496.6C299 1499.4 290.5 1511.2 282.2 1519.8C277.6 1524.6 272 1531.6 269.7 1535.5C267.4 1539.3 265.2 1542.8 264.7 1543.1C262.8 1544.4 260.9 1549.7 260.4 1554.9C260 1559.7 260.3 1561.1 262.4 1564.5C263.8 1566.7 266.7 1571.9 269 1576C275.3 1587.7 283.2 1599 285.1 1599C285.7 1599 288 1600.6 290.3 1602.5C292.5 1604.4 295.1 1606 296 1606C298.7 1606 303.9 1612.3 306 1618.1C307.4 1622.2 307.7 1625.1 307.3 1629.2C306.9 1632.8 307.1 1635 307.9 1635.4C308.5 1635.8 309 1637.2 309 1638.5C309 1639.8 309.5 1641.2 310 1641.5C310.6 1641.8 311 1643 311 1644.1C311 1645.2 312.1 1647.2 313.5 1648.6C314.9 1650 316 1651.7 316 1652.4C316 1653.1 317.1 1654.7 318.5 1656C319.9 1657.3 321 1658.7 321 1659.2C321 1659.7 322.1 1661.8 323.5 1664C326.6 1668.9 326.8 1672 324 1672C322.7 1672 320.4 1669.8 317.2 1665.3C314.6 1661.6 311.3 1657.3 309.8 1655.7C308.2 1654.1 307 1652.6 307 1652.4C307 1652.1 305.9 1650.4 304.5 1648.6C303.1 1646.8 302 1644.9 302 1644.5C302 1644.1 295.5 1637.2 287.5 1629.3C279.5 1621.5 273 1614.5 273 1613.9C273 1608.2 260.8 1593.7 250.1 1586.5C243.2 1581.9 239.3 1577.6 238.6 1573.6C237.9 1570.2 232.9 1565 230.2 1565C228.2 1565 217.2 1558.8 216.6 1557.4C216.3 1556.6 216.5 1554.9 217 1553.6C217.6 1552 217.5 1550.7 216.6 1549.5C215.6 1548.1 214.2 1547.9 207.5 1548.4C203.1 1548.7 197.2 1549.2 194.3 1549.5C190 1550.1 188.9 1549.9 187.1 1548.1C186 1547 183.5 1545.8 181.6 1545.4C179.6 1545.1 178 1544.5 178.1 1544.1C178.2 1542.4 184.8 1538.5 188.9 1537.8C196.4 1536.5 216.9 1536.2 220.5 1537.4C222.3 1538 225.3 1540.2 227.2 1542.3C229.2 1544.3 231.4 1546 232.3 1546C233.1 1546 235.7 1544.4 237.9 1542.6C240.2 1540.7 244.6 1537.5 247.8 1535.6C254.3 1531.7 256.7 1529.1 259.3 1523.7C261.4 1519 261.5 1515.1 259.4 1512.1C258 1510.2 257.8 1508 258.3 1499.7C258.9 1488.5 258.1 1485.3 255 1487C252.4 1488.4 252.2 1488.3 249.4 1485.2L246.8 1482.5L244.7 1485.3C243.5 1486.9 240.9 1489.9 239 1492.1C235.6 1496 235.4 1496.1 232.5 1494.8C230.8 1494.1 228.7 1492.8 227.7 1491.9C226.7 1490.9 223.7 1489.9 221.2 1489.5C210.5 1488 200 1482.9 200 1479.2C200 1477.2 200.4 1477 206.4 1477C210.8 1477 213.1 1477.5 214 1478.5C214.7 1479.3 216.1 1480 217.1 1480C218.1 1480 219.2 1480.4 219.5 1481C219.8 1481.5 221.4 1482 223 1482C224.5 1482 226 1482.4 226.2 1483C226.4 1483.5 227.9 1484.2 229.6 1484.6C232.4 1485.1 232.9 1484.9 234.4 1481.9C235.3 1480.2 236 1478.1 236 1477.3C236 1475.5 233.2 1472.8 230 1471.3C228.6 1470.7 224.8 1469 221.5 1467.6C213.3 1464 212.5 1463.5 212.5 1461.9C212.5 1460.1 218.2 1459.5 223.4 1460.9C225.7 1461.4 231 1462.2 235.3 1462.5C243 1463.1 243 1463.1 243 1460.6C243 1459.2 242.6 1457.8 242 1457.5C241.5 1457.2 241 1454 241 1450.5C241 1447 240.6 1443.8 240 1443.5C239.5 1443.2 239 1441.7 239 1440.2C239 1438.7 238.3 1436.2 237.5 1434.6C236.7 1433.1 236 1429.7 236 1427.1C236 1424.5 235.5 1421.9 234.9 1421.3C234.4 1420.8 234 1417.5 234.2 1413.9C234.5 1407.8 234.6 1407.5 237.1 1407.2C238.6 1407 240.5 1406.1 241.4 1405.1C243.2 1403.1 242.7 1401.5 238.3 1395.3C236.6 1393 236 1390.8 236 1386.7C236 1383.6 235.6 1380.8 235 1380.5C234.5 1380.2 234 1377.6 234 1374.8C234 1371.4 233.4 1369 232.3 1367.8C230.7 1366 230.7 1365.7 232.3 1363.1C233.2 1361.5 234 1359.3 234 1358.2C234 1357 234.5 1355.8 235 1355.5C235.6 1355.2 236 1353.6 236 1352C236 1350.4 236.4 1348.9 236.9 1348.6C238.6 1347.5 241 1338.1 241 1332.4C241 1326.9 238.5 1319 236.8 1319C236.4 1319 236 1317.2 236 1315C236 1311.5 232.6 1304.1 230.1 1302C228.4 1300.6 227 1296.6 227 1293.3C227 1291.2 226.3 1288.2 225.5 1286.6C224.7 1285.1 224 1282.5 224 1280.9C224 1279.4 223.6 1277.8 223 1277.5C222.5 1277.2 222 1275.4 222 1273.6C222 1270.4 220.8 1266.8 217.4 1259.3C215.4 1254.8 215.7 1252.5 218.5 1250.6C221.1 1248.9 221.8 1246.4 219.9 1245.8C218.2 1245.2 217.6 1236.7 219 1234C220.2 1231.7 220.3 1231.7 221.7 1233.6C222.5 1234.6 223.4 1236.7 223.7 1238.3ZM705 1402.8C705 1405.1 705.6 1407.9 709.1 1421.1C709.6 1423.1 710 1425.9 710 1427.4C710 1428.9 710.5 1431.1 711.2 1432.3C713.2 1436.1 716.2 1454.6 715.3 1458.1C714.9 1459.5 713.9 1460 711.5 1460C709.6 1460 707.6 1460.8 706.5 1462C705.5 1463.1 704.3 1464 703.8 1464C702 1464 698 1458.7 698 1456.3C698 1455 697.6 1453.2 697.1 1452.2C696.6 1451.3 695.7 1448.5 695 1446C694.3 1443.5 693.2 1440 692.4 1438.3C691.2 1435.3 691.2 1434.7 693.2 1431.5C696 1426.7 696.7 1417.1 694.6 1411.9C692.7 1407.2 692.5 1402.6 694.3 1401.3C694.9 1400.7 696.7 1400 698.3 1399.6C699.8 1399.3 701 1398.5 701 1397.8C701 1397.2 701.9 1397.5 703 1398.5C704.1 1399.5 705 1401.4 705 1402.8ZM1102.5 1433.9C1127.7 1436.2 1132.3 1437.1 1140.3 1441.3C1149.3 1446 1152.2 1450.7 1148.4 1454.4C1146.3 1456.5 1143.8 1456.4 1140.8 1454C1136.8 1450.9 1130.3 1449.3 1119 1448.5C1111.4 1448.1 1106.8 1447.2 1102.4 1445.4C1097.8 1443.6 1094.5 1443 1088.4 1443C1078 1443 1061.5 1441.2 1056.5 1439.4C1054.2 1438.6 1051.7 1438 1050.9 1438C1050 1438 1048.5 1437.1 1047.5 1436C1045.7 1434.1 1045.8 1434 1047.8 1434C1048.9 1434 1050.2 1433.5 1050.5 1433C1051.3 1431.7 1085.7 1432.3 1102.5 1433.9ZM1021.5 1440C1021.8 1440.5 1024.9 1441 1028.4 1441C1031.8 1441 1035 1441.4 1035.6 1441.9C1036.1 1442.4 1041.7 1443.1 1048 1443.4C1054.3 1443.8 1059.9 1444.5 1060.4 1445C1061 1445.6 1062.3 1446 1063.4 1446C1067.4 1446 1063.4 1447.9 1056.2 1449.5C1051.7 1450.4 1043.7 1451 1035.3 1451C1021.6 1451 1017.5 1451.7 1011 1455C1008.6 1456.2 1007.4 1457.6 1007.2 1459.3C1006.9 1461.6 1007.2 1461.8 1013.4 1462.5C1022.8 1463.5 1022.6 1465 1013.1 1465C1008.7 1465 1004.8 1464.5 1004.5 1464C1004.2 1463.4 1002.9 1463 1001.7 1463C1000.4 1463 998.5 1462.3 997.4 1461.5C996.1 1460.7 992.3 1460 987.9 1459.8C981.8 1459.6 980.5 1459.2 980.2 1457.7C979.9 1456.3 980.6 1456 984 1456C986.3 1456 989.1 1455.5 990.3 1454.8C993.6 1453 1009.9 1449.3 1018.8 1448.3C1021.1 1448 1023 1447.5 1023 1447.1C1023 1446.8 1021 1445.7 1018.5 1444.7C1015.4 1443.4 1014 1442.2 1014 1440.9C1014 1439.4 1014.7 1439 1017.4 1439C1019.3 1439 1021.2 1439.4 1021.5 1440ZM605.4 1442.6C606.3 1445 606.1 1451.8 605.1 1452.4C604.6 1452.7 604 1454.4 603.6 1456.2C603.1 1459 602.3 1459.8 598.6 1461.1C594.5 1462.6 594.2 1462.6 593.1 1460.7C592.2 1459.3 592.1 1458.5 592.9 1457.7C593.5 1457.1 594 1455.6 594 1454.4C594 1453.1 594.5 1451.8 595 1451.5C595.6 1451.2 596 1450.2 596 1449.3C596 1446.8 600.9 1441 602.9 1441C604 1441 605.1 1441.7 605.4 1442.6ZM192.3 1457.7C206 1458.6 208.6 1459.6 205.3 1463.2C203.6 1465.1 196.3 1465.7 194.5 1464.2C192.2 1462.3 185.8 1460.8 184.7 1461.9C184.1 1462.5 180 1463 175.5 1463C167.3 1463 160.3 1465.1 161.5 1467.1C161.9 1467.6 171.7 1468 184 1468C197.5 1468 206.1 1468.4 206.5 1469C206.8 1469.5 208.9 1470 211.2 1470C215.5 1470 221.5 1473.5 218.9 1474.5C218.1 1474.8 201.5 1474.9 182 1474.8C147.3 1474.5 146.5 1474.5 146.5 1472.5C146.5 1470.8 147.3 1470.5 151.3 1470.2C154.5 1470 156 1469.5 155.7 1468.7C155.4 1467.8 149.2 1467.6 130.9 1467.8C117.5 1468 103.8 1467.9 100.5 1467.5C94.7 1466.9 89.9 1464.7 91.3 1463.3C93 1461.7 114 1459.3 137.3 1458.1C146.5 1457.6 154.3 1457 154.6 1456.8C155.2 1456.2 174.3 1456.7 192.3 1457.7ZM1055.6 1474C1056.1 1474.5 1060.3 1475 1064.9 1475.2C1069.8 1475.4 1073.5 1476 1073.7 1476.6C1073.9 1477.3 1066.4 1477.5 1048.3 1477.2C1023.5 1476.8 1021.1 1476.5 1021 1473.7C1021 1472.6 1054.4 1472.8 1055.6 1474ZM121.3 1489.8C125.3 1490 126.5 1492 122.6 1492C121.2 1492 119.8 1492.5 119.5 1493.1C118.7 1494.3 126.2 1493.8 129.5 1492.4C131.9 1491.4 173.8 1491.2 176.3 1492.2C177.9 1492.9 177.9 1493 176.3 1495C174.7 1496.8 173.4 1497 162 1497C155.1 1497 149 1497.4 148.4 1497.9C147.9 1498.4 141.7 1499.1 134.5 1499.4C127.4 1499.6 118.4 1500.2 114.7 1500.5C108.2 1501.2 107.8 1501.1 107.3 1499C106.7 1496.7 107.1 1496.7 94 1498.6C91.5 1499 88.6 1499.9 87.5 1500.6C86.4 1501.4 83.9 1502 81.8 1502C79.8 1502 77.8 1502.4 77.5 1503C77.2 1503.5 75.1 1504 73 1504C70.9 1504 68.9 1504.4 68.5 1504.9C68.2 1505.4 66.5 1506.2 64.8 1506.6C63 1506.9 60.9 1507.6 60 1508C49.4 1513.4 42.9 1516 40.2 1516C36 1516 36.1 1514.4 40.6 1509.1C44.3 1504.9 58 1497 61.8 1497C62.8 1497 64.1 1496.5 64.8 1495.8C65.4 1495.2 68.1 1494.3 70.7 1493.8C73.3 1493.3 78 1492.5 81 1491.9C91.1 1490.1 107.9 1489.2 121.3 1489.8ZM197.9 1503.6C199.5 1504.8 199.9 1505.5 199.1 1506.3C198.5 1506.9 198 1508.2 198 1509.1C198 1511.2 204.4 1513 214 1513.7C217.6 1514 221 1514.6 221.7 1515.2C222.5 1515.9 223.5 1515.6 225 1514.2C226.7 1512.6 226.9 1511.8 226.1 1509.7C224.7 1506.1 225.7 1504 228.6 1504C230.8 1504 231 1504.4 231 1508.8C231 1512.6 231.7 1514.6 234.5 1518.7C239.8 1526.5 239 1531 232.3 1531C230.5 1531 227.4 1530.3 225.3 1529.4C223.2 1528.5 220.6 1527.4 219.5 1527C218.4 1526.6 215 1525 212 1523.6C207.2 1521.3 204.6 1520.8 191.5 1520.1C178 1519.3 176.4 1519 175.1 1517.1C174.3 1515.8 172.7 1515 170.9 1515C167.6 1515 166.8 1512.3 169.8 1511.4C170.7 1511.1 172.3 1510.4 173.2 1509.9C174.2 1509.4 176.1 1509 177.5 1509C178.9 1509 180 1508.6 180 1508.1C180 1507.6 174.8 1506.9 168.5 1506.5C162.2 1506.1 157 1505.6 157 1505.3C157 1505.1 157.6 1504.3 158.3 1503.5C160.2 1501.3 194.7 1501.4 197.9 1503.6ZM711.8 1506.5C713.5 1506.8 715 1507.4 715 1507.7C715 1508.7 710.8 1511.9 708.6 1512.6C707.5 1513 706.2 1513.8 705.8 1514.4C704.8 1515.8 705 1521.7 706 1525C706.7 1527.3 706.8 1527.1 707.5 1523.2C708.2 1519.2 708.4 1519 711.6 1519C714.8 1519 715 1519.2 715 1522.4C715 1524.3 714.5 1526 713.9 1526.2C712.4 1526.7 718.4 1533 720.4 1533C721.3 1533 722.3 1532.4 722.6 1531.6C723.5 1529.2 728.6 1527.9 730.1 1529.6C730.9 1530.6 732.3 1530.9 734.4 1530.5C737.9 1529.8 743.5 1528.1 746.5 1526.9C751.6 1524.9 759.2 1524.3 764.8 1525.5C767.3 1526.1 768 1526.7 768 1528.6C768 1530.6 767.5 1531 765.1 1531C763.4 1531 761.8 1531.4 761.5 1532C761.2 1532.5 758.5 1533 755.7 1533C752.7 1533 749.7 1533.7 748.6 1534.5C747.4 1535.4 744.4 1536 741.1 1536C735.5 1536 732 1537.8 732 1540.8C732 1541.6 731.2 1542.9 730.3 1543.6C728 1545.3 722 1545.4 722 1543.7C722 1543.1 721.2 1541.5 720.2 1540.2C718.5 1538 718.3 1538 716.8 1539.7C715.9 1540.7 715 1542.4 714.8 1543.5C714.5 1545.1 713.8 1545.4 711.2 1545.2C708.8 1544.9 708 1545.3 708 1546.5C708 1547.8 708.8 1548.1 711.3 1547.8C714.1 1547.5 714.5 1547.8 714.5 1550C714.5 1552.2 713.9 1552.6 709.9 1553.4C707.3 1553.9 704.5 1554 703.6 1553.7C701.1 1552.7 700.6 1550.1 702.4 1548.1C704 1546.4 704 1546.2 702.5 1545.6C701.6 1545.3 697.5 1545 693.4 1545H686V1541.4C686 1537.5 689.4 1531.9 695.8 1525.2C698.9 1522 699.9 1520.1 700.4 1516.1C701.4 1508.5 704.9 1502.9 707.5 1504.9C708 1505.4 710 1506.1 711.8 1506.5ZM143 1537C143 1537.5 141.2 1538 139.1 1538C136.9 1538 134.8 1538.4 134.5 1539C134.2 1539.5 132.9 1540 131.6 1540C130.4 1540 128.5 1540.7 127.4 1541.5C126.4 1542.3 124.3 1543 122.8 1543C121.3 1543 119.8 1543.4 119.5 1544C119.2 1544.5 116.4 1545 113.5 1545C110.4 1545 104.7 1546.1 100.4 1547.5C92 1550.2 90 1550.5 90 1549C90 1548.4 90.7 1548 91.5 1548C92.3 1548 93 1547.6 93 1547.2C93 1546 103.3 1541.9 109.7 1540.5C110.7 1540.3 112.9 1539.7 114.5 1539.1C122.7 1536.3 143 1534.8 143 1537Z" fill="white"/>
<path id="Vector_9" d="M929 1675.5C928.2 1676.5 926 1677 922.9 1677C919 1677 917.4 1677.6 915 1679.7C913.3 1681.1 912 1683 912 1683.7C912 1684.5 911.3 1685.8 910.5 1686.7C909.4 1687.7 909 1689.9 909.1 1694.1C909.2 1697.6 908.8 1700.5 908 1701.5C907 1702.7 907 1703.3 908 1704.5C909.1 1705.8 915 1706 950.1 1706H990.9L990.1 1703.7C989.5 1702.2 988.3 1701.4 986.3 1701.2C982.6 1700.8 978.3 1696.3 977.8 1692.3C977.6 1690.2 976.9 1689.4 975.1 1689.2C973.7 1689 970.2 1687.3 967.3 1685.4C963.6 1683 960.3 1681.8 956.2 1681.3C953.1 1681 949 1679.8 947.2 1678.8C945.4 1677.8 943.1 1677 942.1 1677C941.1 1677 939.7 1676.3 939 1675.5C938.3 1674.7 936.1 1674 934 1674C931.9 1674 929.7 1674.7 929 1675.5Z" fill="white"/>
</g>
</svg>
